<svg width="1228" height="578" viewBox="0 0 1228 578" fill="none" xmlns="http://www.w3.org/2000/svg">
<rect width="1228" height="578" fill="#23262B"/>
<g filter="url(#filter0_d_185_18)">
<path fill-rule="evenodd" clip-rule="evenodd" d="M172.554 251.832C170.63 251.866 170.648 251.837 155.337 279.336C139.499 307.779 139.956 306.815 141.439 308.684C141.879 309.238 143.544 310.287 146.135 311.642C150.084 313.707 150.169 313.734 151.387 313.286L152.626 312.831L158.944 301.484L165.262 290.138L173.686 294.828L182.109 299.518L175.768 310.906L169.427 322.295L169.832 323.712L170.238 325.13L174.341 327.415L178.445 329.7L179.864 329.298L181.283 328.896L196.238 302.012C207.722 281.37 211.17 274.965 211.089 274.423C210.876 272.991 210.025 272.234 206.275 270.146C202.321 267.945 201.081 267.6 199.9 268.375C199.417 268.692 197.099 272.526 192.864 280.014L186.547 291.18L178.156 286.616L169.764 282.053L176.108 270.659L182.452 259.266L182.046 257.848L181.641 256.43L177.478 254.124C175.102 252.809 172.988 251.825 172.554 251.832ZM152.073 250.96C150.135 250.747 149.738 251.223 145.496 258.841C141.881 265.333 141.487 265.931 140.902 265.807C137.764 265.143 136.204 265.703 134.959 267.939C133.906 269.83 134.084 271.769 135.437 273.158L136.423 274.171L132.649 281.407C130.393 285.731 128.869 288.981 128.862 289.484C128.839 290.9 130.201 292.233 133.611 294.132C137.004 296.021 138.871 296.486 140.043 295.735C140.513 295.433 143.988 289.442 151.046 276.765L161.363 258.237L161.097 256.944C160.834 255.665 160.791 255.629 156.865 253.351C154.684 252.086 152.527 251.01 152.073 250.96ZM213.899 285.366C213.474 285.322 212.672 285.44 212.117 285.63C211.136 285.965 210.825 286.476 200.99 303.938C189.676 324.028 189.819 323.703 191.405 325.714C192.417 326.998 197.838 330.112 199.595 330.42C201.697 330.788 202.239 330.163 206.591 322.347C210.057 316.121 210.556 315.358 210.999 315.604C211.941 316.128 214.018 316.047 215.05 315.445C216.33 314.698 217.509 312.646 217.555 311.084C217.593 309.823 216.689 308.168 215.647 307.587C215.02 307.238 215.09 307.082 219.072 299.932C223.117 292.667 223.135 292.626 222.87 291.34C222.607 290.061 222.564 290.024 218.638 287.747C216.457 286.481 214.324 285.41 213.899 285.366Z" fill="#2D3138"/>
</g>
<g filter="url(#filter1_d_185_18)">
<path fill-rule="evenodd" clip-rule="evenodd" d="M467.195 273.974C465.272 274.008 465.29 273.978 449.978 301.478C434.141 329.921 434.598 328.956 436.081 330.825C436.521 331.38 438.186 332.429 440.777 333.783C444.726 335.848 444.81 335.875 446.029 335.428L447.268 334.973L453.586 323.626L459.904 312.279L468.327 316.969L476.751 321.66L470.41 333.048L464.069 344.436L464.474 345.854L464.879 347.272L468.983 349.557L473.087 351.842L474.505 351.44L475.924 351.037L490.88 324.154C502.364 303.512 505.812 297.107 505.731 296.565C505.518 295.132 504.667 294.376 500.917 292.288C496.963 290.086 495.723 289.742 494.542 290.517C494.059 290.833 491.741 294.668 487.505 302.155L481.189 313.322L472.797 308.758L464.405 304.194L470.749 292.801L477.093 281.407L476.688 279.99L476.283 278.572L472.12 276.266C469.743 274.95 467.63 273.966 467.195 273.974ZM446.715 273.101C444.776 272.888 444.379 273.364 440.137 280.983C436.523 287.474 436.128 288.073 435.543 287.949C432.406 287.285 430.846 287.845 429.601 290.081C428.548 291.972 428.725 293.91 430.079 295.3L431.065 296.313L427.291 303.548C425.035 307.873 423.511 311.122 423.503 311.625C423.481 313.042 424.842 314.374 428.253 316.273C431.645 318.162 433.513 318.628 434.684 317.876C435.154 317.575 438.629 311.584 445.688 298.907L456.004 280.379L455.739 279.086C455.476 277.807 455.432 277.77 451.507 275.493C449.325 274.227 447.169 273.151 446.715 273.101ZM508.54 307.507C508.115 307.463 507.314 307.582 506.759 307.771C505.777 308.107 505.467 308.617 495.632 326.08C484.318 346.169 484.461 345.845 486.046 347.856C487.058 349.139 492.479 352.254 494.236 352.561C496.339 352.929 496.88 352.304 501.232 344.489C504.699 338.262 505.198 337.499 505.64 337.745C506.582 338.27 508.66 338.189 509.691 337.586C510.971 336.839 512.15 334.787 512.197 333.225C512.235 331.965 511.331 330.309 510.288 329.729C509.662 329.38 509.732 329.224 513.713 322.073C517.758 314.808 517.776 314.768 517.512 313.481C517.249 312.202 517.205 312.166 513.28 309.888C511.098 308.623 508.965 307.551 508.54 307.507Z" fill="#2D3138"/>
</g>
<g filter="url(#filter2_d_185_18)">
<path fill-rule="evenodd" clip-rule="evenodd" d="M948.33 417.888C946.406 417.922 946.424 417.892 931.113 445.392C915.275 473.835 915.732 472.87 917.215 474.74C917.655 475.294 919.32 476.343 921.911 477.698C925.86 479.763 925.945 479.789 927.163 479.342L928.402 478.887L934.72 467.54L941.038 456.193L949.462 460.883L957.885 465.574L951.544 476.962L945.203 488.35L945.608 489.768L946.014 491.186L950.117 493.471L954.221 495.756L955.64 495.354L957.059 494.951L972.014 468.068C983.498 447.426 986.946 441.021 986.865 440.479C986.652 439.046 985.801 438.29 982.051 436.202C978.097 434 976.857 433.656 975.676 434.431C975.193 434.747 972.875 438.582 968.64 446.07L962.323 457.236L953.932 452.672L945.54 448.108L951.884 436.715L958.228 425.321L957.822 423.904L957.417 422.486L953.254 420.18C950.878 418.864 948.764 417.88 948.33 417.888ZM927.849 417.015C925.911 416.802 925.513 417.278 921.271 424.897C917.657 431.388 917.263 431.987 916.678 431.863C913.54 431.199 911.98 431.759 910.735 433.995C909.682 435.886 909.86 437.824 911.213 439.214L912.199 440.227L908.425 447.462C906.169 451.787 904.645 455.036 904.637 455.539C904.615 456.956 905.977 458.288 909.387 460.187C912.78 462.076 914.647 462.542 915.819 461.79C916.289 461.489 919.764 455.498 926.822 442.821L937.139 424.293L936.873 423C936.61 421.721 936.567 421.684 932.641 419.407C930.46 418.141 928.303 417.066 927.849 417.015ZM989.675 451.421C989.25 451.377 988.448 451.496 987.893 451.686C986.912 452.021 986.601 452.531 976.766 469.994C965.452 490.083 965.595 489.759 967.181 491.77C968.193 493.053 973.614 496.168 975.371 496.475C977.473 496.843 978.015 496.218 982.366 488.403C985.833 482.176 986.332 481.413 986.775 481.66C987.717 482.184 989.794 482.103 990.826 481.5C992.106 480.753 993.285 478.701 993.331 477.139C993.369 475.879 992.465 474.223 991.423 473.643C990.796 473.294 990.866 473.138 994.847 465.987C998.893 458.722 998.911 458.682 998.646 457.396C998.383 456.116 998.34 456.08 994.414 453.802C992.233 452.537 990.1 451.466 989.675 451.421Z" fill="#2D3138"/>
</g>
<g filter="url(#filter3_d_185_18)">
<path fill-rule="evenodd" clip-rule="evenodd" d="M991.76 268.013C989.836 268.047 989.854 268.017 974.543 295.517C958.705 323.96 959.162 322.995 960.645 324.865C961.085 325.419 962.75 326.468 965.341 327.823C969.29 329.888 969.375 329.914 970.593 329.467L971.832 329.012L978.15 317.665L984.468 306.318L992.891 311.008L1001.32 315.699L994.974 327.087L988.633 338.475L989.038 339.893L989.443 341.311L993.547 343.596L997.651 345.881L999.07 345.479L1000.49 345.076L1015.44 318.193C1026.93 297.551 1030.38 291.146 1030.3 290.604C1030.08 289.171 1029.23 288.415 1025.48 286.327C1021.53 284.125 1020.29 283.781 1019.11 284.556C1018.62 284.872 1016.3 288.707 1012.07 296.195L1005.75 307.361L997.361 302.797L988.97 298.233L995.314 286.84L1001.66 275.446L1001.25 274.029L1000.85 272.611L996.684 270.305C994.308 268.989 992.194 268.005 991.76 268.013ZM971.279 267.14C969.34 266.927 968.943 267.403 964.701 275.022C961.087 281.513 960.692 282.112 960.107 281.988C956.97 281.324 955.41 281.884 954.165 284.12C953.112 286.011 953.289 287.949 954.643 289.339L955.629 290.352L951.855 297.587C949.599 301.912 948.075 305.161 948.067 305.664C948.045 307.081 949.407 308.413 952.817 310.312C956.209 312.201 958.077 312.667 959.248 311.915C959.718 311.614 963.193 305.623 970.252 292.946L980.569 274.418L980.303 273.125C980.04 271.846 979.997 271.809 976.071 269.532C973.89 268.266 971.733 267.191 971.279 267.14ZM1033.1 301.546C1032.68 301.502 1031.88 301.621 1031.32 301.811C1030.34 302.146 1030.03 302.656 1020.2 320.119C1008.88 340.208 1009.02 339.884 1010.61 341.895C1011.62 343.178 1017.04 346.293 1018.8 346.6C1020.9 346.968 1021.44 346.343 1025.8 338.528C1029.26 332.301 1029.76 331.538 1030.2 331.785C1031.15 332.309 1033.22 332.228 1034.26 331.625C1035.54 330.878 1036.71 328.826 1036.76 327.264C1036.8 326.004 1035.9 324.348 1034.85 323.768C1034.23 323.419 1034.3 323.263 1038.28 316.112C1042.32 308.847 1042.34 308.807 1042.08 307.521C1041.81 306.241 1041.77 306.205 1037.84 303.927C1035.66 302.662 1033.53 301.591 1033.1 301.546Z" fill="#2D3138"/>
</g>
<g filter="url(#filter4_d_185_18)">
<path fill-rule="evenodd" clip-rule="evenodd" d="M734.587 251.832C732.663 251.866 732.682 251.837 717.37 279.336C701.533 307.779 701.99 306.815 703.473 308.684C703.913 309.238 705.578 310.287 708.168 311.642C712.117 313.707 712.202 313.734 713.421 313.286L714.659 312.831L720.977 301.484L727.295 290.138L735.719 294.828L744.142 299.518L737.801 310.906L731.46 322.295L731.866 323.712L732.271 325.13L736.375 327.415L740.478 329.7L741.897 329.298L743.316 328.896L758.272 302.012C769.755 281.37 773.203 274.965 773.122 274.423C772.909 272.991 772.058 272.234 768.308 270.146C764.354 267.945 763.115 267.6 761.933 268.375C761.451 268.692 759.132 272.526 754.897 280.014L748.58 291.18L740.189 286.616L731.797 282.053L738.141 270.659L744.485 259.266L744.08 257.848L743.674 256.43L739.511 254.124C737.135 252.809 735.022 251.825 734.587 251.832ZM714.106 250.96C712.168 250.747 711.771 251.223 707.529 258.841C703.914 265.333 703.52 265.931 702.935 265.807C699.797 265.143 698.237 265.703 696.992 267.939C695.939 269.83 696.117 271.769 697.47 273.158L698.457 274.171L694.682 281.407C692.427 285.731 690.903 288.981 690.895 289.484C690.872 290.9 692.234 292.233 695.644 294.132C699.037 296.021 700.904 296.486 702.076 295.735C702.546 295.433 706.021 289.442 713.079 276.765L723.396 258.237L723.13 256.944C722.867 255.665 722.824 255.629 718.898 253.351C716.717 252.086 714.56 251.01 714.106 250.96ZM775.932 285.366C775.507 285.322 774.705 285.44 774.15 285.63C773.169 285.965 772.858 286.476 763.024 303.938C751.709 324.028 751.852 323.703 753.438 325.714C754.45 326.998 759.871 330.112 761.628 330.42C763.73 330.788 764.272 330.163 768.624 322.347C772.091 316.121 772.589 315.358 773.032 315.604C773.974 316.128 776.051 316.047 777.083 315.445C778.363 314.698 779.542 312.646 779.588 311.084C779.626 309.823 778.723 308.168 777.68 307.587C777.053 307.238 777.123 307.082 781.105 299.932C785.15 292.667 785.168 292.626 784.903 291.34C784.64 290.061 784.597 290.024 780.671 287.747C778.49 286.481 776.357 285.41 775.932 285.366Z" fill="#2D3138"/>
</g>
<g filter="url(#filter5_d_185_18)">
<path fill-rule="evenodd" clip-rule="evenodd" d="M677.532 397.451C675.608 397.484 675.627 397.455 660.315 424.954C644.478 453.397 644.935 452.433 646.418 454.302C646.858 454.857 648.523 455.906 651.113 457.26C655.062 459.325 655.147 459.352 656.366 458.904L657.604 458.449L663.922 447.103L670.24 435.756L678.664 440.446L687.087 445.136L680.746 456.525L674.405 467.913L674.811 469.331L675.216 470.749L679.32 473.034L683.423 475.319L684.842 474.916L686.261 474.514L701.217 447.63C712.7 426.989 716.148 420.583 716.068 420.041C715.854 418.609 715.003 417.853 711.253 415.765C707.299 413.563 706.06 413.219 704.878 413.993C704.396 414.31 702.077 418.144 697.842 425.632L691.526 436.799L683.134 432.235L674.742 427.671L681.086 416.277L687.43 404.884L687.025 403.466L686.619 402.048L682.456 399.743C680.08 398.427 677.967 397.443 677.532 397.451ZM657.052 396.578C655.113 396.365 654.716 396.841 650.474 404.459C646.859 410.951 646.465 411.549 645.88 411.425C642.742 410.762 641.182 411.321 639.937 413.558C638.884 415.448 639.062 417.387 640.415 418.776L641.402 419.789L637.628 427.025C635.372 431.349 633.848 434.599 633.84 435.102C633.817 436.518 635.179 437.851 638.589 439.75C641.982 441.639 643.849 442.104 645.021 441.353C645.491 441.051 648.966 435.061 656.024 422.384L666.341 403.855L666.075 402.563C665.812 401.283 665.769 401.247 661.843 398.969C659.662 397.704 657.506 396.628 657.052 396.578ZM718.877 430.984C718.452 430.94 717.65 431.059 717.095 431.248C716.114 431.583 715.804 432.094 705.969 449.556C694.655 469.646 694.797 469.321 696.383 471.333C697.395 472.616 702.816 475.73 704.573 476.038C706.675 476.406 707.217 475.781 711.569 467.965C715.036 461.739 715.535 460.976 715.977 461.222C716.919 461.747 718.996 461.665 720.028 461.063C721.308 460.316 722.487 458.264 722.534 456.702C722.571 455.441 721.668 453.786 720.625 453.205C719.999 452.856 720.068 452.701 724.05 445.55C728.095 438.285 728.113 438.244 727.848 436.958C727.585 435.679 727.542 435.642 723.616 433.365C721.435 432.099 719.302 431.028 718.877 430.984Z" fill="#2D3138"/>
</g>
<g filter="url(#filter6_d_185_18)">
<path fill-rule="evenodd" clip-rule="evenodd" d="M319.023 417.888C317.099 417.922 317.118 417.892 301.806 445.392C285.969 473.835 286.426 472.87 287.909 474.74C288.349 475.294 290.014 476.343 292.604 477.698C296.553 479.763 296.638 479.789 297.857 479.342L299.095 478.887L305.413 467.54L311.731 456.193L320.155 460.883L328.578 465.574L322.237 476.962L315.896 488.35L316.302 489.768L316.707 491.186L320.811 493.471L324.914 495.756L326.333 495.354L327.752 494.951L342.708 468.068C354.191 447.426 357.639 441.021 357.559 440.479C357.345 439.046 356.494 438.29 352.744 436.202C348.79 434 347.551 433.656 346.369 434.431C345.887 434.747 343.568 438.582 339.333 446.07L333.017 457.236L324.625 452.672L316.233 448.108L322.577 436.715L328.921 425.321L328.516 423.904L328.11 422.486L323.947 420.18C321.571 418.864 319.458 417.88 319.023 417.888ZM298.543 417.015C296.604 416.802 296.207 417.278 291.965 424.897C288.35 431.388 287.956 431.987 287.371 431.863C284.233 431.199 282.673 431.759 281.428 433.995C280.375 435.886 280.553 437.824 281.906 439.214L282.893 440.227L279.119 447.462C276.863 451.787 275.339 455.036 275.331 455.539C275.308 456.956 276.67 458.288 280.08 460.187C283.473 462.076 285.34 462.542 286.512 461.79C286.982 461.489 290.457 455.498 297.515 442.821L307.832 424.293L307.566 423C307.303 421.721 307.26 421.684 303.334 419.407C301.153 418.141 298.997 417.066 298.543 417.015ZM360.368 451.421C359.943 451.377 359.141 451.496 358.586 451.686C357.605 452.021 357.295 452.531 347.46 469.994C336.146 490.083 336.288 489.759 337.874 491.77C338.886 493.053 344.307 496.168 346.064 496.475C348.166 496.843 348.708 496.218 353.06 488.403C356.527 482.176 357.026 481.413 357.468 481.66C358.41 482.184 360.487 482.103 361.519 481.5C362.799 480.753 363.978 478.701 364.025 477.139C364.062 475.879 363.159 474.223 362.116 473.643C361.49 473.294 361.559 473.138 365.541 465.987C369.586 458.722 369.604 458.682 369.339 457.396C369.076 456.116 369.033 456.08 365.107 453.802C362.926 452.537 360.793 451.466 360.368 451.421Z" fill="#2D3138"/>
</g>
<g filter="url(#filter7_d_185_18)">
<path fill-rule="evenodd" clip-rule="evenodd" d="M385.554 113.52C383.63 113.554 383.648 113.524 368.337 141.023C352.499 169.467 352.956 168.502 354.439 170.371C354.879 170.926 356.544 171.975 359.135 173.329C363.084 175.394 363.169 175.421 364.387 174.974L365.626 174.519L371.944 163.172L378.262 151.825L386.686 156.515L395.109 161.206L388.768 172.594L382.427 183.982L382.832 185.4L383.238 186.818L387.341 189.103L391.445 191.388L392.864 190.986L394.283 190.583L409.238 163.7C420.722 143.058 424.17 136.653 424.089 136.111C423.876 134.678 423.025 133.922 419.275 131.834C415.321 129.632 414.081 129.288 412.9 130.063C412.417 130.379 410.099 134.214 405.864 141.701L399.547 152.868L391.156 148.304L382.764 143.74L389.108 132.347L395.452 120.953L395.046 119.535L394.641 118.118L390.478 115.812C388.102 114.496 385.988 113.512 385.554 113.52ZM365.073 112.647C363.135 112.434 362.738 112.91 358.496 120.529C354.881 127.02 354.487 127.618 353.902 127.495C350.764 126.831 349.204 127.39 347.959 129.627C346.906 131.518 347.084 133.456 348.437 134.845L349.423 135.859L345.649 143.094C343.393 147.419 341.869 150.668 341.862 151.171C341.839 152.588 343.201 153.92 346.611 155.819C350.004 157.708 351.871 158.174 353.043 157.422C353.513 157.12 356.988 151.13 364.046 138.453L374.363 119.924L374.097 118.632C373.834 117.353 373.791 117.316 369.865 115.039C367.684 113.773 365.527 112.697 365.073 112.647ZM426.899 147.053C426.474 147.009 425.672 147.128 425.117 147.317C424.136 147.652 423.825 148.163 413.99 165.626C402.676 185.715 402.819 185.391 404.405 187.402C405.417 188.685 410.838 191.8 412.595 192.107C414.697 192.475 415.239 191.85 419.591 184.035C423.057 177.808 423.556 177.045 423.999 177.291C424.941 177.816 427.018 177.735 428.05 177.132C429.33 176.385 430.509 174.333 430.555 172.771C430.593 171.511 429.689 169.855 428.647 169.275C428.02 168.926 428.09 168.77 432.072 161.619C436.117 154.354 436.135 154.314 435.87 153.027C435.607 151.748 435.564 151.712 431.638 149.434C429.457 148.169 427.324 147.097 426.899 147.053Z" fill="#2D3138"/>
</g>
<g filter="url(#filter8_d_185_18)">
<path fill-rule="evenodd" clip-rule="evenodd" d="M115.554 45.5199C113.63 45.5537 113.648 45.5243 98.3368 73.0235C82.4995 101.467 82.9563 100.502 84.4394 102.371C84.8794 102.926 86.5444 103.975 89.1351 105.329C93.084 107.394 93.1688 107.421 94.3874 106.974L95.6261 106.519L101.944 95.1719L108.262 83.825L116.686 88.5153L125.109 93.2056L118.768 104.594L112.427 115.982L112.832 117.4L113.238 118.818L117.341 121.103L121.445 123.388L122.864 122.986L124.283 122.583L139.238 95.6997C150.722 75.058 154.17 68.6526 154.089 68.1105C153.876 66.678 153.025 65.922 149.275 63.834C145.321 61.6323 144.081 61.288 142.9 62.0627C142.417 62.3792 140.099 66.2138 135.864 73.7013L129.547 84.8679L121.156 80.3039L112.764 75.7402L119.108 64.3466L125.452 52.9533L125.046 51.5355L124.641 50.1176L120.478 47.8119C118.102 46.496 115.988 45.5123 115.554 45.5199ZM95.0733 44.6473C93.1346 44.4341 92.7375 44.9101 88.4955 52.5285C84.8809 59.0202 84.4865 59.6184 83.9016 59.4946C80.764 58.8309 79.2042 59.3904 77.959 61.6268C76.9062 63.5177 77.0836 65.456 78.4369 66.8454L79.4235 67.8585L75.6493 75.0942C73.3934 79.4187 71.8694 82.6681 71.8615 83.1711C71.839 84.5878 73.2007 85.9203 76.611 87.8192C80.0035 89.7081 81.8712 90.1738 83.0426 89.4221C83.5126 89.1205 86.9875 83.1299 94.0461 70.4529L104.363 51.9244L104.097 50.6319C103.834 49.3528 103.791 49.3161 99.865 47.0388C97.6837 45.7733 95.5273 44.6974 95.0733 44.6473ZM156.899 79.0532C156.474 79.0091 155.672 79.128 155.117 79.3173C154.136 79.6525 153.825 80.1632 143.99 97.6258C132.676 117.715 132.819 117.391 134.405 119.402C135.417 120.685 140.838 123.8 142.595 124.107C144.697 124.475 145.239 123.85 149.591 116.035C153.057 109.808 153.556 109.045 153.999 109.291C154.941 109.816 157.018 109.735 158.05 109.132C159.33 108.385 160.509 106.333 160.555 104.771C160.593 103.511 159.689 101.855 158.647 101.275C158.02 100.926 158.09 100.77 162.072 93.6192C166.117 86.3541 166.135 86.3136 165.87 85.0274C165.607 83.7483 165.564 83.7115 161.638 81.4342C159.457 80.1687 157.324 79.0974 156.899 79.0532Z" fill="#2D3138"/>
</g>
<g filter="url(#filter9_d_185_18)">
<path fill-rule="evenodd" clip-rule="evenodd" d="M645.554 56.5199C643.63 56.5537 643.648 56.5243 628.337 84.0235C612.5 112.467 612.956 111.502 614.439 113.371C614.879 113.926 616.544 114.975 619.135 116.329C623.084 118.394 623.169 118.421 624.387 117.974L625.626 117.519L631.944 106.172L638.262 94.825L646.686 99.5153L655.109 104.206L648.768 115.594L642.427 126.982L642.832 128.4L643.238 129.818L647.341 132.103L651.445 134.388L652.864 133.986L654.283 133.583L669.238 106.7C680.722 86.058 684.17 79.6526 684.089 79.1105C683.876 77.678 683.025 76.922 679.275 74.834C675.321 72.6323 674.082 72.288 672.9 73.0627C672.417 73.3792 670.099 77.2138 665.864 84.7013L659.547 95.8679L651.156 91.3039L642.764 86.7402L649.108 75.3466L655.452 63.9533L655.046 62.5355L654.641 61.1176L650.478 58.8119C648.102 57.496 645.988 56.5123 645.554 56.5199ZM625.073 55.6473C623.135 55.4341 622.738 55.9101 618.496 63.5285C614.881 70.0202 614.487 70.6184 613.902 70.4946C610.764 69.8309 609.204 70.3904 607.959 72.6268C606.906 74.5177 607.084 76.456 608.437 77.8454L609.424 78.8585L605.649 86.0942C603.393 90.4187 601.869 93.6681 601.862 94.1711C601.839 95.5878 603.201 96.9203 606.611 98.8192C610.004 100.708 611.871 101.174 613.043 100.422C613.513 100.12 616.988 94.1299 624.046 81.4529L634.363 62.9244L634.097 61.6319C633.834 60.3528 633.791 60.3161 629.865 58.0388C627.684 56.7733 625.527 55.6974 625.073 55.6473ZM686.899 90.0532C686.474 90.0091 685.672 90.128 685.117 90.3173C684.136 90.6525 683.825 91.1632 673.99 108.626C662.676 128.715 662.819 128.391 664.405 130.402C665.417 131.685 670.838 134.8 672.595 135.107C674.697 135.475 675.239 134.85 679.591 127.035C683.057 120.808 683.556 120.045 683.999 120.291C684.941 120.816 687.018 120.735 688.05 120.132C689.33 119.385 690.509 117.333 690.555 115.771C690.593 114.511 689.689 112.855 688.647 112.275C688.02 111.926 688.09 111.77 692.072 104.619C696.117 97.3541 696.135 97.3136 695.87 96.0274C695.607 94.7483 695.564 94.7115 691.638 92.4342C689.457 91.1687 687.324 90.0974 686.899 90.0532Z" fill="#2D3138"/>
</g>
<g filter="url(#filter10_d_185_18)">
<path fill-rule="evenodd" clip-rule="evenodd" d="M1048.81 102.809C1046.89 102.843 1046.91 102.813 1031.6 130.313C1015.76 158.756 1016.22 157.791 1017.7 159.66C1018.14 160.215 1019.81 161.264 1022.4 162.618C1026.34 164.683 1026.43 164.71 1027.65 164.263L1028.89 163.808L1035.2 152.461L1041.52 141.114L1049.95 145.804L1058.37 150.495L1052.03 161.883L1045.69 173.271L1046.09 174.689L1046.5 176.107L1050.6 178.392L1054.71 180.677L1056.12 180.275L1057.54 179.872L1072.5 152.989C1083.98 132.347 1087.43 125.942 1087.35 125.4C1087.14 123.967 1086.29 123.211 1082.54 121.123C1078.58 118.921 1077.34 118.577 1076.16 119.352C1075.68 119.668 1073.36 123.503 1069.12 130.99L1062.81 142.157L1054.42 137.593L1046.02 133.029L1052.37 121.636L1058.71 110.242L1058.31 108.825L1057.9 107.407L1053.74 105.101C1051.36 103.785 1049.25 102.801 1048.81 102.809ZM1028.33 101.936C1026.4 101.723 1026 102.199 1021.76 109.818C1018.14 116.309 1017.75 116.907 1017.16 116.784C1014.02 116.12 1012.46 116.679 1011.22 118.916C1010.17 120.807 1010.34 122.745 1011.7 124.135L1012.68 125.148L1008.91 132.383C1006.65 136.708 1005.13 139.957 1005.12 140.46C1005.1 141.877 1006.46 143.209 1009.87 145.108C1013.26 146.997 1015.13 147.463 1016.3 146.711C1016.77 146.41 1020.25 140.419 1027.31 127.742L1037.62 109.213L1037.36 107.921C1037.09 106.642 1037.05 106.605 1033.13 104.328C1030.94 103.062 1028.79 101.986 1028.33 101.936ZM1090.16 136.342C1089.73 136.298 1088.93 136.417 1088.38 136.606C1087.4 136.942 1087.09 137.452 1077.25 154.915C1065.94 175.004 1066.08 174.68 1067.67 176.691C1068.68 177.974 1074.1 181.089 1075.86 181.396C1077.96 181.764 1078.5 181.139 1082.85 173.324C1086.32 167.097 1086.82 166.334 1087.26 166.58C1088.2 167.105 1090.28 167.024 1091.31 166.421C1092.59 165.674 1093.77 163.622 1093.82 162.06C1093.85 160.8 1092.95 159.144 1091.91 158.564C1091.28 158.215 1091.35 158.059 1095.33 150.908C1099.38 143.643 1099.4 143.603 1099.13 142.316C1098.87 141.037 1098.82 141.001 1094.9 138.723C1092.72 137.458 1090.58 136.386 1090.16 136.342Z" fill="#2D3138"/>
</g>
<defs>
<filter id="filter0_d_185_18" x="122.861" y="250.923" width="106.104" height="91.5767" filterUnits="userSpaceOnUse" color-interpolation-filters="sRGB">
<feFlood flood-opacity="0" result="BackgroundImageFix"/>
<feColorMatrix in="SourceAlpha" type="matrix" values="0 0 0 0 0 0 0 0 0 0 0 0 0 0 0 0 0 0 127 0" result="hardAlpha"/>
<feOffset dy="6"/>
<feGaussianBlur stdDeviation="3"/>
<feComposite in2="hardAlpha" operator="out"/>
<feColorMatrix type="matrix" values="0 0 0 0 0 0 0 0 0 0 0 0 0 0 0 0 0 0 0.15 0"/>
<feBlend mode="normal" in2="BackgroundImageFix" result="effect1_dropShadow_185_18"/>
<feBlend mode="normal" in="SourceGraphic" in2="effect1_dropShadow_185_18" result="shape"/>
</filter>
<filter id="filter1_d_185_18" x="417.503" y="273.064" width="106.104" height="91.5767" filterUnits="userSpaceOnUse" color-interpolation-filters="sRGB">
<feFlood flood-opacity="0" result="BackgroundImageFix"/>
<feColorMatrix in="SourceAlpha" type="matrix" values="0 0 0 0 0 0 0 0 0 0 0 0 0 0 0 0 0 0 127 0" result="hardAlpha"/>
<feOffset dy="6"/>
<feGaussianBlur stdDeviation="3"/>
<feComposite in2="hardAlpha" operator="out"/>
<feColorMatrix type="matrix" values="0 0 0 0 0 0 0 0 0 0 0 0 0 0 0 0 0 0 0.15 0"/>
<feBlend mode="normal" in2="BackgroundImageFix" result="effect1_dropShadow_185_18"/>
<feBlend mode="normal" in="SourceGraphic" in2="effect1_dropShadow_185_18" result="shape"/>
</filter>
<filter id="filter2_d_185_18" x="898.637" y="416.979" width="106.104" height="91.5767" filterUnits="userSpaceOnUse" color-interpolation-filters="sRGB">
<feFlood flood-opacity="0" result="BackgroundImageFix"/>
<feColorMatrix in="SourceAlpha" type="matrix" values="0 0 0 0 0 0 0 0 0 0 0 0 0 0 0 0 0 0 127 0" result="hardAlpha"/>
<feOffset dy="6"/>
<feGaussianBlur stdDeviation="3"/>
<feComposite in2="hardAlpha" operator="out"/>
<feColorMatrix type="matrix" values="0 0 0 0 0 0 0 0 0 0 0 0 0 0 0 0 0 0 0.15 0"/>
<feBlend mode="normal" in2="BackgroundImageFix" result="effect1_dropShadow_185_18"/>
<feBlend mode="normal" in="SourceGraphic" in2="effect1_dropShadow_185_18" result="shape"/>
</filter>
<filter id="filter3_d_185_18" x="942.067" y="267.104" width="106.104" height="91.5767" filterUnits="userSpaceOnUse" color-interpolation-filters="sRGB">
<feFlood flood-opacity="0" result="BackgroundImageFix"/>
<feColorMatrix in="SourceAlpha" type="matrix" values="0 0 0 0 0 0 0 0 0 0 0 0 0 0 0 0 0 0 127 0" result="hardAlpha"/>
<feOffset dy="6"/>
<feGaussianBlur stdDeviation="3"/>
<feComposite in2="hardAlpha" operator="out"/>
<feColorMatrix type="matrix" values="0 0 0 0 0 0 0 0 0 0 0 0 0 0 0 0 0 0 0.15 0"/>
<feBlend mode="normal" in2="BackgroundImageFix" result="effect1_dropShadow_185_18"/>
<feBlend mode="normal" in="SourceGraphic" in2="effect1_dropShadow_185_18" result="shape"/>
</filter>
<filter id="filter4_d_185_18" x="684.894" y="250.923" width="106.104" height="91.5767" filterUnits="userSpaceOnUse" color-interpolation-filters="sRGB">
<feFlood flood-opacity="0" result="BackgroundImageFix"/>
<feColorMatrix in="SourceAlpha" type="matrix" values="0 0 0 0 0 0 0 0 0 0 0 0 0 0 0 0 0 0 127 0" result="hardAlpha"/>
<feOffset dy="6"/>
<feGaussianBlur stdDeviation="3"/>
<feComposite in2="hardAlpha" operator="out"/>
<feColorMatrix type="matrix" values="0 0 0 0 0 0 0 0 0 0 0 0 0 0 0 0 0 0 0.15 0"/>
<feBlend mode="normal" in2="BackgroundImageFix" result="effect1_dropShadow_185_18"/>
<feBlend mode="normal" in="SourceGraphic" in2="effect1_dropShadow_185_18" result="shape"/>
</filter>
<filter id="filter5_d_185_18" x="627.839" y="396.541" width="106.104" height="91.5767" filterUnits="userSpaceOnUse" color-interpolation-filters="sRGB">
<feFlood flood-opacity="0" result="BackgroundImageFix"/>
<feColorMatrix in="SourceAlpha" type="matrix" values="0 0 0 0 0 0 0 0 0 0 0 0 0 0 0 0 0 0 127 0" result="hardAlpha"/>
<feOffset dy="6"/>
<feGaussianBlur stdDeviation="3"/>
<feComposite in2="hardAlpha" operator="out"/>
<feColorMatrix type="matrix" values="0 0 0 0 0 0 0 0 0 0 0 0 0 0 0 0 0 0 0.15 0"/>
<feBlend mode="normal" in2="BackgroundImageFix" result="effect1_dropShadow_185_18"/>
<feBlend mode="normal" in="SourceGraphic" in2="effect1_dropShadow_185_18" result="shape"/>
</filter>
<filter id="filter6_d_185_18" x="269.33" y="416.979" width="106.104" height="91.5767" filterUnits="userSpaceOnUse" color-interpolation-filters="sRGB">
<feFlood flood-opacity="0" result="BackgroundImageFix"/>
<feColorMatrix in="SourceAlpha" type="matrix" values="0 0 0 0 0 0 0 0 0 0 0 0 0 0 0 0 0 0 127 0" result="hardAlpha"/>
<feOffset dy="6"/>
<feGaussianBlur stdDeviation="3"/>
<feComposite in2="hardAlpha" operator="out"/>
<feColorMatrix type="matrix" values="0 0 0 0 0 0 0 0 0 0 0 0 0 0 0 0 0 0 0.15 0"/>
<feBlend mode="normal" in2="BackgroundImageFix" result="effect1_dropShadow_185_18"/>
<feBlend mode="normal" in="SourceGraphic" in2="effect1_dropShadow_185_18" result="shape"/>
</filter>
<filter id="filter7_d_185_18" x="335.861" y="112.61" width="106.104" height="91.5767" filterUnits="userSpaceOnUse" color-interpolation-filters="sRGB">
<feFlood flood-opacity="0" result="BackgroundImageFix"/>
<feColorMatrix in="SourceAlpha" type="matrix" values="0 0 0 0 0 0 0 0 0 0 0 0 0 0 0 0 0 0 127 0" result="hardAlpha"/>
<feOffset dy="6"/>
<feGaussianBlur stdDeviation="3"/>
<feComposite in2="hardAlpha" operator="out"/>
<feColorMatrix type="matrix" values="0 0 0 0 0 0 0 0 0 0 0 0 0 0 0 0 0 0 0.15 0"/>
<feBlend mode="normal" in2="BackgroundImageFix" result="effect1_dropShadow_185_18"/>
<feBlend mode="normal" in="SourceGraphic" in2="effect1_dropShadow_185_18" result="shape"/>
</filter>
<filter id="filter8_d_185_18" x="65.8612" y="44.6104" width="106.104" height="91.5767" filterUnits="userSpaceOnUse" color-interpolation-filters="sRGB">
<feFlood flood-opacity="0" result="BackgroundImageFix"/>
<feColorMatrix in="SourceAlpha" type="matrix" values="0 0 0 0 0 0 0 0 0 0 0 0 0 0 0 0 0 0 127 0" result="hardAlpha"/>
<feOffset dy="6"/>
<feGaussianBlur stdDeviation="3"/>
<feComposite in2="hardAlpha" operator="out"/>
<feColorMatrix type="matrix" values="0 0 0 0 0 0 0 0 0 0 0 0 0 0 0 0 0 0 0.15 0"/>
<feBlend mode="normal" in2="BackgroundImageFix" result="effect1_dropShadow_185_18"/>
<feBlend mode="normal" in="SourceGraphic" in2="effect1_dropShadow_185_18" result="shape"/>
</filter>
<filter id="filter9_d_185_18" x="595.861" y="55.6104" width="106.104" height="91.5767" filterUnits="userSpaceOnUse" color-interpolation-filters="sRGB">
<feFlood flood-opacity="0" result="BackgroundImageFix"/>
<feColorMatrix in="SourceAlpha" type="matrix" values="0 0 0 0 0 0 0 0 0 0 0 0 0 0 0 0 0 0 127 0" result="hardAlpha"/>
<feOffset dy="6"/>
<feGaussianBlur stdDeviation="3"/>
<feComposite in2="hardAlpha" operator="out"/>
<feColorMatrix type="matrix" values="0 0 0 0 0 0 0 0 0 0 0 0 0 0 0 0 0 0 0.15 0"/>
<feBlend mode="normal" in2="BackgroundImageFix" result="effect1_dropShadow_185_18"/>
<feBlend mode="normal" in="SourceGraphic" in2="effect1_dropShadow_185_18" result="shape"/>
</filter>
<filter id="filter10_d_185_18" x="999.122" y="101.899" width="106.104" height="91.5767" filterUnits="userSpaceOnUse" color-interpolation-filters="sRGB">
<feFlood flood-opacity="0" result="BackgroundImageFix"/>
<feColorMatrix in="SourceAlpha" type="matrix" values="0 0 0 0 0 0 0 0 0 0 0 0 0 0 0 0 0 0 127 0" result="hardAlpha"/>
<feOffset dy="6"/>
<feGaussianBlur stdDeviation="3"/>
<feComposite in2="hardAlpha" operator="out"/>
<feColorMatrix type="matrix" values="0 0 0 0 0 0 0 0 0 0 0 0 0 0 0 0 0 0 0.15 0"/>
<feBlend mode="normal" in2="BackgroundImageFix" result="effect1_dropShadow_185_18"/>
<feBlend mode="normal" in="SourceGraphic" in2="effect1_dropShadow_185_18" result="shape"/>
</filter>
</defs>
</svg>
