<svg width="20" height="29" viewBox="0 0 20 29" fill="none" xmlns="http://www.w3.org/2000/svg">
<path fill-rule="evenodd" clip-rule="evenodd" d="M4.17428 0.453557C3.11053 0.687495 2.49003 1.00799 1.64381 1.76083C0.368723 2.89514 -0.233902 4.70363 0.0893764 6.42512C0.305248 7.57332 0.690485 8.29999 1.55806 9.19524L2.24643 9.90553L1.55806 10.6158C0.68988 11.5115 0.305249 12.2377 0.0889222 13.3887C-0.227084 15.071 0.374328 16.9004 1.61033 18.0163L2.34657 18.681L1.69698 19.2588C-0.602475 21.3046 -0.558846 24.9074 1.78999 26.9457C2.80058 27.8227 3.94993 28.2318 5.3862 28.2255C7.03864 28.2185 8.0924 27.7916 9.2519 26.6596C10.6545 25.2903 10.8433 24.6245 10.8413 21.0541C10.8406 19.5061 10.8656 18.2396 10.8972 18.2396C10.9287 18.2396 11.3397 18.4634 11.8106 18.737C14.5684 20.3399 18.0875 19.3191 19.5733 16.485C19.9343 15.7968 19.9957 15.5018 19.9999 14.4381C20.0066 12.7852 19.6556 11.8699 18.5873 10.7536L17.7757 9.90553L18.6106 9.03499C19.6851 7.91501 20.0082 7.05807 19.992 5.37298C19.9829 4.43474 19.9002 3.95853 19.6544 3.42969C19.1747 2.39831 17.9728 1.24631 16.8573 0.748904L15.9147 0.328693L10.4611 0.299451C6.53782 0.278542 4.77373 0.321675 4.17428 0.453557ZM9.13828 5.48264L9.17888 9.02826L6.94169 9.02739C4.40076 9.02651 3.77996 8.90618 3.02812 8.26913C1.4649 6.94431 1.20085 4.97397 2.3752 3.39562C3.26883 2.19464 4.29184 1.86932 7.05258 1.90821L9.09768 1.93702L9.13828 5.48264ZM15.5628 2.01495C16.5114 2.26921 17.5324 3.03872 17.9383 3.8053C18.6933 5.23145 18.489 6.70628 17.3704 7.9039C16.4492 8.89009 15.9638 9.02139 13.2258 9.02505L10.8398 9.02826V5.54361C10.8398 3.62693 10.8853 2.01495 10.9409 1.96143C11.1019 1.80587 14.9491 1.85031 15.5628 2.01495ZM9.17343 14.2919V17.8009H6.8205C4.20201 17.8009 3.7077 17.6868 2.83542 16.8797C1.29341 15.4531 1.25948 13.2079 2.75771 11.7469C3.60438 10.9213 4.15701 10.7895 6.78747 10.786L9.17343 10.7828V14.2919ZM16.4028 11.1555C19.0319 12.4199 19.0669 16.0796 16.4625 17.3927C15.0152 18.1225 13.1886 17.9088 12.0763 16.8797C11.2797 16.1428 10.9477 15.3855 10.9418 14.2923C10.934 12.8486 11.7798 11.5718 13.1121 11.0156C13.9806 10.6531 15.4917 10.7173 16.4028 11.1555ZM9.14661 21.7852C9.08556 24.304 8.92438 24.7967 7.86789 25.692C7.10318 26.3398 6.39042 26.6039 5.39014 26.6097C3.2864 26.6219 1.67729 25.0798 1.69092 23.0645C1.70092 21.6021 2.37444 20.5801 3.79556 19.8709C4.33138 19.6034 4.67935 19.5676 6.80111 19.5619L9.20054 19.5555L9.14661 21.7852Z" fill="#E7EA4B"/>
</svg>
