<svg width="626" height="646" viewBox="0 0 626 646" fill="none" xmlns="http://www.w3.org/2000/svg">
<rect width="626" height="646" fill="#23262B"/>
<g filter="url(#filter0_d_185_18)">
<path fill-rule="evenodd" clip-rule="evenodd" d="M111.554 81.5199C109.63 81.5537 109.648 81.5243 94.3368 109.023C78.4995 137.467 78.9563 136.502 80.4394 138.371C80.8794 138.926 82.5444 139.975 85.1351 141.329C89.084 143.394 89.1688 143.421 90.3874 142.974L91.6261 142.519L97.9441 131.172L104.262 119.825L112.686 124.515L121.109 129.206L114.768 140.594L108.427 151.982L108.832 153.4L109.238 154.818L113.341 157.103L117.445 159.388L118.864 158.986L120.283 158.583L135.238 131.7C146.722 111.058 150.17 104.653 150.089 104.111C149.876 102.678 149.025 101.922 145.275 99.834C141.321 97.6323 140.081 97.288 138.9 98.0627C138.417 98.3792 136.099 102.214 131.864 109.701L125.547 120.868L117.156 116.304L108.764 111.74L115.108 100.347L121.452 88.9533L121.046 87.5355L120.641 86.1176L116.478 83.8119C114.102 82.496 111.988 81.5123 111.554 81.5199ZM91.0733 80.6473C89.1346 80.4341 88.7375 80.9101 84.4955 88.5285C80.8809 95.0202 80.4865 95.6184 79.9016 95.4946C76.764 94.8309 75.2042 95.3904 73.959 97.6268C72.9062 99.5177 73.0836 101.456 74.4369 102.845L75.4235 103.859L71.6493 111.094C69.3934 115.419 67.8694 118.668 67.8615 119.171C67.839 120.588 69.2007 121.92 72.611 123.819C76.0035 125.708 77.8712 126.174 79.0426 125.422C79.5126 125.12 82.9875 119.13 90.0461 106.453L100.363 87.9244L100.097 86.6319C99.8342 85.3528 99.7909 85.3161 95.865 83.0388C93.6837 81.7733 91.5273 80.6974 91.0733 80.6473ZM152.899 115.053C152.474 115.009 151.672 115.128 151.117 115.317C150.136 115.652 149.825 116.163 139.99 133.626C128.676 153.715 128.819 153.391 130.405 155.402C131.417 156.685 136.838 159.8 138.595 160.107C140.697 160.475 141.239 159.85 145.591 152.035C149.057 145.808 149.556 145.045 149.999 145.291C150.941 145.816 153.018 145.735 154.05 145.132C155.33 144.385 156.509 142.333 156.555 140.771C156.593 139.511 155.689 137.855 154.647 137.275C154.02 136.926 154.09 136.77 158.072 129.619C162.117 122.354 162.135 122.314 161.87 121.027C161.607 119.748 161.564 119.712 157.638 117.434C155.457 116.169 153.324 115.097 152.899 115.053Z" fill="#2D3138"/>
</g>
<g filter="url(#filter1_d_185_18)">
<path fill-rule="evenodd" clip-rule="evenodd" d="M143.554 335.52C141.63 335.554 141.648 335.524 126.337 363.023C110.499 391.467 110.956 390.502 112.439 392.371C112.879 392.926 114.544 393.975 117.135 395.329C121.084 397.394 121.169 397.421 122.387 396.974L123.626 396.519L129.944 385.172L136.262 373.825L144.686 378.515L153.109 383.206L146.768 394.594L140.427 405.982L140.832 407.4L141.238 408.818L145.341 411.103L149.445 413.388L150.864 412.986L152.283 412.583L167.238 385.7C178.722 365.058 182.17 358.653 182.089 358.111C181.876 356.678 181.025 355.922 177.275 353.834C173.321 351.632 172.081 351.288 170.9 352.063C170.417 352.379 168.099 356.214 163.864 363.701L157.547 374.868L149.156 370.304L140.764 365.74L147.108 354.347L153.452 342.953L153.046 341.535L152.641 340.118L148.478 337.812C146.102 336.496 143.988 335.512 143.554 335.52ZM123.073 334.647C121.135 334.434 120.738 334.91 116.496 342.529C112.881 349.02 112.487 349.618 111.902 349.495C108.764 348.831 107.204 349.39 105.959 351.627C104.906 353.518 105.084 355.456 106.437 356.845L107.423 357.859L103.649 365.094C101.393 369.419 99.8694 372.668 99.8615 373.171C99.839 374.588 101.201 375.92 104.611 377.819C108.004 379.708 109.871 380.174 111.043 379.422C111.513 379.12 114.988 373.13 122.046 360.453L132.363 341.924L132.097 340.632C131.834 339.353 131.791 339.316 127.865 337.039C125.684 335.773 123.527 334.697 123.073 334.647ZM184.899 369.053C184.474 369.009 183.672 369.128 183.117 369.317C182.136 369.652 181.825 370.163 171.99 387.626C160.676 407.715 160.819 407.391 162.405 409.402C163.417 410.685 168.838 413.8 170.595 414.107C172.697 414.475 173.239 413.85 177.591 406.035C181.057 399.808 181.556 399.045 181.999 399.291C182.941 399.816 185.018 399.735 186.05 399.132C187.33 398.385 188.509 396.333 188.555 394.771C188.593 393.511 187.689 391.855 186.647 391.275C186.02 390.926 186.09 390.77 190.072 383.619C194.117 376.354 194.135 376.314 193.87 375.027C193.607 373.748 193.564 373.712 189.638 371.434C187.457 370.169 185.324 369.097 184.899 369.053Z" fill="#2D3138"/>
</g>
<g filter="url(#filter2_d_185_18)">
<path fill-rule="evenodd" clip-rule="evenodd" d="M366.554 283.52C364.63 283.554 364.648 283.524 349.337 311.023C333.499 339.467 333.956 338.502 335.439 340.371C335.879 340.926 337.544 341.975 340.135 343.329C344.084 345.394 344.169 345.421 345.387 344.974L346.626 344.519L352.944 333.172L359.262 321.825L367.686 326.515L376.109 331.206L369.768 342.594L363.427 353.982L363.832 355.4L364.238 356.818L368.341 359.103L372.445 361.388L373.864 360.986L375.283 360.583L390.238 333.7C401.722 313.058 405.17 306.653 405.089 306.111C404.876 304.678 404.025 303.922 400.275 301.834C396.321 299.632 395.081 299.288 393.9 300.063C393.417 300.379 391.099 304.214 386.864 311.701L380.547 322.868L372.156 318.304L363.764 313.74L370.108 302.347L376.452 290.953L376.046 289.535L375.641 288.118L371.478 285.812C369.102 284.496 366.988 283.512 366.554 283.52ZM346.073 282.647C344.135 282.434 343.738 282.91 339.496 290.529C335.881 297.02 335.487 297.618 334.902 297.495C331.764 296.831 330.204 297.39 328.959 299.627C327.906 301.518 328.084 303.456 329.437 304.845L330.423 305.859L326.649 313.094C324.393 317.419 322.869 320.668 322.862 321.171C322.839 322.588 324.201 323.92 327.611 325.819C331.004 327.708 332.871 328.174 334.043 327.422C334.513 327.12 337.988 321.13 345.046 308.453L355.363 289.924L355.097 288.632C354.834 287.353 354.791 287.316 350.865 285.039C348.684 283.773 346.527 282.697 346.073 282.647ZM407.899 317.053C407.474 317.009 406.672 317.128 406.117 317.317C405.136 317.652 404.825 318.163 394.99 335.626C383.676 355.715 383.819 355.391 385.405 357.402C386.417 358.685 391.838 361.8 393.595 362.107C395.697 362.475 396.239 361.85 400.591 354.035C404.057 347.808 404.556 347.045 404.999 347.291C405.941 347.816 408.018 347.735 409.05 347.132C410.33 346.385 411.509 344.333 411.555 342.771C411.593 341.511 410.689 339.855 409.647 339.275C409.02 338.926 409.09 338.77 413.072 331.619C417.117 324.354 417.135 324.314 416.87 323.027C416.607 321.748 416.564 321.712 412.638 319.434C410.457 318.169 408.324 317.097 407.899 317.053Z" fill="#2D3138"/>
</g>
<g filter="url(#filter3_d_185_18)">
<path fill-rule="evenodd" clip-rule="evenodd" d="M309.554 35.5199C307.63 35.5537 307.648 35.5243 292.337 63.0235C276.499 91.4666 276.956 90.5022 278.439 92.3714C278.879 92.9259 280.544 93.975 283.135 95.3294C287.084 97.3944 287.169 97.4212 288.387 96.9736L289.626 96.5188L295.944 85.1719L302.262 73.825L310.686 78.5153L319.109 83.2056L312.768 94.5939L306.427 105.982L306.832 107.4L307.238 108.818L311.341 111.103L315.445 113.388L316.864 112.986L318.283 112.583L333.238 85.6997C344.722 65.058 348.17 58.6526 348.089 58.1105C347.876 56.678 347.025 55.922 343.275 53.834C339.321 51.6323 338.081 51.288 336.9 52.0627C336.417 52.3792 334.099 56.2138 329.864 63.7013L323.547 74.8679L315.156 70.3039L306.764 65.7402L313.108 54.3466L319.452 42.9533L319.046 41.5355L318.641 40.1176L314.478 37.8119C312.102 36.496 309.988 35.5123 309.554 35.5199ZM289.073 34.6473C287.135 34.4341 286.738 34.9101 282.496 42.5285C278.881 49.0202 278.487 49.6184 277.902 49.4946C274.764 48.8309 273.204 49.3904 271.959 51.6268C270.906 53.5177 271.084 55.456 272.437 56.8454L273.423 57.8585L269.649 65.0942C267.393 69.4187 265.869 72.6681 265.862 73.1711C265.839 74.5878 267.201 75.9203 270.611 77.8192C274.004 79.7081 275.871 80.1738 277.043 79.4221C277.513 79.1205 280.988 73.1299 288.046 60.4529L298.363 41.9244L298.097 40.6319C297.834 39.3528 297.791 39.3161 293.865 37.0388C291.684 35.7733 289.527 34.6974 289.073 34.6473ZM350.899 69.0532C350.474 69.0091 349.672 69.128 349.117 69.3173C348.136 69.6525 347.825 70.1632 337.99 87.6258C326.676 107.715 326.819 107.391 328.405 109.402C329.417 110.685 334.838 113.8 336.595 114.107C338.697 114.475 339.239 113.85 343.591 106.035C347.057 99.8082 347.556 99.045 347.999 99.2914C348.941 99.816 351.018 99.7346 352.05 99.1323C353.33 98.3852 354.509 96.3333 354.555 94.7711C354.593 93.5105 353.689 91.8551 352.647 91.2746C352.02 90.9258 352.09 90.77 356.072 83.6192C360.117 76.3541 360.135 76.3136 359.87 75.0274C359.607 73.7483 359.564 73.7115 355.638 71.4342C353.457 70.1687 351.324 69.0974 350.899 69.0532Z" fill="#2D3138"/>
</g>
<g filter="url(#filter4_d_185_18)">
<path fill-rule="evenodd" clip-rule="evenodd" d="M510.554 127.52C508.63 127.554 508.648 127.524 493.337 155.023C477.499 183.467 477.956 182.502 479.439 184.371C479.879 184.926 481.544 185.975 484.135 187.329C488.084 189.394 488.169 189.421 489.387 188.974L490.626 188.519L496.944 177.172L503.262 165.825L511.686 170.515L520.109 175.206L513.768 186.594L507.427 197.982L507.832 199.4L508.238 200.818L512.341 203.103L516.445 205.388L517.864 204.986L519.283 204.583L534.238 177.7C545.722 157.058 549.17 150.653 549.089 150.111C548.876 148.678 548.025 147.922 544.275 145.834C540.321 143.632 539.081 143.288 537.9 144.063C537.417 144.379 535.099 148.214 530.864 155.701L524.547 166.868L516.156 162.304L507.764 157.74L514.108 146.347L520.452 134.953L520.046 133.535L519.641 132.118L515.478 129.812C513.102 128.496 510.988 127.512 510.554 127.52ZM490.073 126.647C488.135 126.434 487.738 126.91 483.496 134.529C479.881 141.02 479.487 141.618 478.902 141.495C475.764 140.831 474.204 141.39 472.959 143.627C471.906 145.518 472.084 147.456 473.437 148.845L474.423 149.859L470.649 157.094C468.393 161.419 466.869 164.668 466.862 165.171C466.839 166.588 468.201 167.92 471.611 169.819C475.004 171.708 476.871 172.174 478.043 171.422C478.513 171.12 481.988 165.13 489.046 152.453L499.363 133.924L499.097 132.632C498.834 131.353 498.791 131.316 494.865 129.039C492.684 127.773 490.527 126.697 490.073 126.647ZM551.899 161.053C551.474 161.009 550.672 161.128 550.117 161.317C549.136 161.652 548.825 162.163 538.99 179.626C527.676 199.715 527.819 199.391 529.405 201.402C530.417 202.685 535.838 205.8 537.595 206.107C539.697 206.475 540.239 205.85 544.591 198.035C548.057 191.808 548.556 191.045 548.999 191.291C549.941 191.816 552.018 191.735 553.05 191.132C554.33 190.385 555.509 188.333 555.555 186.771C555.593 185.511 554.689 183.855 553.647 183.275C553.02 182.926 553.09 182.77 557.072 175.619C561.117 168.354 561.135 168.314 560.87 167.027C560.607 165.748 560.564 165.712 556.638 163.434C554.457 162.169 552.324 161.097 551.899 161.053Z" fill="#2D3138"/>
</g>
<g filter="url(#filter5_d_185_18)">
<path fill-rule="evenodd" clip-rule="evenodd" d="M485.554 479.52C483.63 479.554 483.648 479.524 468.337 507.023C452.499 535.467 452.956 534.502 454.439 536.371C454.879 536.926 456.544 537.975 459.135 539.329C463.084 541.394 463.169 541.421 464.387 540.974L465.626 540.519L471.944 529.172L478.262 517.825L486.686 522.515L495.109 527.206L488.768 538.594L482.427 549.982L482.832 551.4L483.238 552.818L487.341 555.103L491.445 557.388L492.864 556.986L494.283 556.583L509.238 529.7C520.722 509.058 524.17 502.653 524.089 502.111C523.876 500.678 523.025 499.922 519.275 497.834C515.321 495.632 514.081 495.288 512.9 496.063C512.417 496.379 510.099 500.214 505.864 507.701L499.547 518.868L491.156 514.304L482.764 509.74L489.108 498.347L495.452 486.953L495.046 485.535L494.641 484.118L490.478 481.812C488.102 480.496 485.988 479.512 485.554 479.52ZM465.073 478.647C463.135 478.434 462.738 478.91 458.496 486.529C454.881 493.02 454.487 493.618 453.902 493.495C450.764 492.831 449.204 493.39 447.959 495.627C446.906 497.518 447.084 499.456 448.437 500.845L449.423 501.859L445.649 509.094C443.393 513.419 441.869 516.668 441.862 517.171C441.839 518.588 443.201 519.92 446.611 521.819C450.004 523.708 451.871 524.174 453.043 523.422C453.513 523.12 456.988 517.13 464.046 504.453L474.363 485.924L474.097 484.632C473.834 483.353 473.791 483.316 469.865 481.039C467.684 479.773 465.527 478.697 465.073 478.647ZM526.899 513.053C526.474 513.009 525.672 513.128 525.117 513.317C524.136 513.652 523.825 514.163 513.99 531.626C502.676 551.715 502.819 551.391 504.405 553.402C505.417 554.685 510.838 557.8 512.595 558.107C514.697 558.475 515.239 557.85 519.591 550.035C523.057 543.808 523.556 543.045 523.999 543.291C524.941 543.816 527.018 543.735 528.05 543.132C529.33 542.385 530.509 540.333 530.555 538.771C530.593 537.511 529.689 535.855 528.647 535.275C528.02 534.926 528.09 534.77 532.072 527.619C536.117 520.354 536.135 520.314 535.87 519.027C535.607 517.748 535.564 517.712 531.638 515.434C529.457 514.169 527.324 513.097 526.899 513.053Z" fill="#2D3138"/>
</g>
<g filter="url(#filter6_d_185_18)">
<path fill-rule="evenodd" clip-rule="evenodd" d="M241.554 530.52C239.63 530.554 239.648 530.524 224.337 558.023C208.499 586.467 208.956 585.502 210.439 587.371C210.879 587.926 212.544 588.975 215.135 590.329C219.084 592.394 219.169 592.421 220.387 591.974L221.626 591.519L227.944 580.172L234.262 568.825L242.686 573.515L251.109 578.206L244.768 589.594L238.427 600.982L238.832 602.4L239.238 603.818L243.341 606.103L247.445 608.388L248.864 607.986L250.283 607.583L265.238 580.7C276.722 560.058 280.17 553.653 280.089 553.111C279.876 551.678 279.025 550.922 275.275 548.834C271.321 546.632 270.081 546.288 268.9 547.063C268.417 547.379 266.099 551.214 261.864 558.701L255.547 569.868L247.156 565.304L238.764 560.74L245.108 549.347L251.452 537.953L251.046 536.535L250.641 535.118L246.478 532.812C244.102 531.496 241.988 530.512 241.554 530.52ZM221.073 529.647C219.135 529.434 218.738 529.91 214.496 537.529C210.881 544.02 210.487 544.618 209.902 544.495C206.764 543.831 205.204 544.39 203.959 546.627C202.906 548.518 203.084 550.456 204.437 551.845L205.423 552.859L201.649 560.094C199.393 564.419 197.869 567.668 197.862 568.171C197.839 569.588 199.201 570.92 202.611 572.819C206.004 574.708 207.871 575.174 209.043 574.422C209.513 574.12 212.988 568.13 220.046 555.453L230.363 536.924L230.097 535.632C229.834 534.353 229.791 534.316 225.865 532.039C223.684 530.773 221.527 529.697 221.073 529.647ZM282.899 564.053C282.474 564.009 281.672 564.128 281.117 564.317C280.136 564.652 279.825 565.163 269.99 582.626C258.676 602.715 258.819 602.391 260.405 604.402C261.417 605.685 266.838 608.8 268.595 609.107C270.697 609.475 271.239 608.85 275.591 601.035C279.057 594.808 279.556 594.045 279.999 594.291C280.941 594.816 283.018 594.735 284.05 594.132C285.33 593.385 286.509 591.333 286.555 589.771C286.593 588.511 285.689 586.855 284.647 586.275C284.02 585.926 284.09 585.77 288.072 578.619C292.117 571.354 292.135 571.314 291.87 570.027C291.607 568.748 291.564 568.712 287.638 566.434C285.457 565.169 283.324 564.097 282.899 564.053Z" fill="#2D3138"/>
</g>
<defs>
<filter id="filter0_d_185_18" x="61.8612" y="80.6104" width="106.104" height="91.5767" filterUnits="userSpaceOnUse" color-interpolation-filters="sRGB">
<feFlood flood-opacity="0" result="BackgroundImageFix"/>
<feColorMatrix in="SourceAlpha" type="matrix" values="0 0 0 0 0 0 0 0 0 0 0 0 0 0 0 0 0 0 127 0" result="hardAlpha"/>
<feOffset dy="6"/>
<feGaussianBlur stdDeviation="3"/>
<feComposite in2="hardAlpha" operator="out"/>
<feColorMatrix type="matrix" values="0 0 0 0 0 0 0 0 0 0 0 0 0 0 0 0 0 0 0.15 0"/>
<feBlend mode="normal" in2="BackgroundImageFix" result="effect1_dropShadow_185_18"/>
<feBlend mode="normal" in="SourceGraphic" in2="effect1_dropShadow_185_18" result="shape"/>
</filter>
<filter id="filter1_d_185_18" x="93.8612" y="334.61" width="106.104" height="91.5767" filterUnits="userSpaceOnUse" color-interpolation-filters="sRGB">
<feFlood flood-opacity="0" result="BackgroundImageFix"/>
<feColorMatrix in="SourceAlpha" type="matrix" values="0 0 0 0 0 0 0 0 0 0 0 0 0 0 0 0 0 0 127 0" result="hardAlpha"/>
<feOffset dy="6"/>
<feGaussianBlur stdDeviation="3"/>
<feComposite in2="hardAlpha" operator="out"/>
<feColorMatrix type="matrix" values="0 0 0 0 0 0 0 0 0 0 0 0 0 0 0 0 0 0 0.15 0"/>
<feBlend mode="normal" in2="BackgroundImageFix" result="effect1_dropShadow_185_18"/>
<feBlend mode="normal" in="SourceGraphic" in2="effect1_dropShadow_185_18" result="shape"/>
</filter>
<filter id="filter2_d_185_18" x="316.861" y="282.61" width="106.104" height="91.5767" filterUnits="userSpaceOnUse" color-interpolation-filters="sRGB">
<feFlood flood-opacity="0" result="BackgroundImageFix"/>
<feColorMatrix in="SourceAlpha" type="matrix" values="0 0 0 0 0 0 0 0 0 0 0 0 0 0 0 0 0 0 127 0" result="hardAlpha"/>
<feOffset dy="6"/>
<feGaussianBlur stdDeviation="3"/>
<feComposite in2="hardAlpha" operator="out"/>
<feColorMatrix type="matrix" values="0 0 0 0 0 0 0 0 0 0 0 0 0 0 0 0 0 0 0.15 0"/>
<feBlend mode="normal" in2="BackgroundImageFix" result="effect1_dropShadow_185_18"/>
<feBlend mode="normal" in="SourceGraphic" in2="effect1_dropShadow_185_18" result="shape"/>
</filter>
<filter id="filter3_d_185_18" x="259.861" y="34.6104" width="106.104" height="91.5767" filterUnits="userSpaceOnUse" color-interpolation-filters="sRGB">
<feFlood flood-opacity="0" result="BackgroundImageFix"/>
<feColorMatrix in="SourceAlpha" type="matrix" values="0 0 0 0 0 0 0 0 0 0 0 0 0 0 0 0 0 0 127 0" result="hardAlpha"/>
<feOffset dy="6"/>
<feGaussianBlur stdDeviation="3"/>
<feComposite in2="hardAlpha" operator="out"/>
<feColorMatrix type="matrix" values="0 0 0 0 0 0 0 0 0 0 0 0 0 0 0 0 0 0 0.15 0"/>
<feBlend mode="normal" in2="BackgroundImageFix" result="effect1_dropShadow_185_18"/>
<feBlend mode="normal" in="SourceGraphic" in2="effect1_dropShadow_185_18" result="shape"/>
</filter>
<filter id="filter4_d_185_18" x="460.861" y="126.61" width="106.104" height="91.5767" filterUnits="userSpaceOnUse" color-interpolation-filters="sRGB">
<feFlood flood-opacity="0" result="BackgroundImageFix"/>
<feColorMatrix in="SourceAlpha" type="matrix" values="0 0 0 0 0 0 0 0 0 0 0 0 0 0 0 0 0 0 127 0" result="hardAlpha"/>
<feOffset dy="6"/>
<feGaussianBlur stdDeviation="3"/>
<feComposite in2="hardAlpha" operator="out"/>
<feColorMatrix type="matrix" values="0 0 0 0 0 0 0 0 0 0 0 0 0 0 0 0 0 0 0.15 0"/>
<feBlend mode="normal" in2="BackgroundImageFix" result="effect1_dropShadow_185_18"/>
<feBlend mode="normal" in="SourceGraphic" in2="effect1_dropShadow_185_18" result="shape"/>
</filter>
<filter id="filter5_d_185_18" x="435.861" y="478.61" width="106.104" height="91.5767" filterUnits="userSpaceOnUse" color-interpolation-filters="sRGB">
<feFlood flood-opacity="0" result="BackgroundImageFix"/>
<feColorMatrix in="SourceAlpha" type="matrix" values="0 0 0 0 0 0 0 0 0 0 0 0 0 0 0 0 0 0 127 0" result="hardAlpha"/>
<feOffset dy="6"/>
<feGaussianBlur stdDeviation="3"/>
<feComposite in2="hardAlpha" operator="out"/>
<feColorMatrix type="matrix" values="0 0 0 0 0 0 0 0 0 0 0 0 0 0 0 0 0 0 0.15 0"/>
<feBlend mode="normal" in2="BackgroundImageFix" result="effect1_dropShadow_185_18"/>
<feBlend mode="normal" in="SourceGraphic" in2="effect1_dropShadow_185_18" result="shape"/>
</filter>
<filter id="filter6_d_185_18" x="191.861" y="529.61" width="106.104" height="91.5767" filterUnits="userSpaceOnUse" color-interpolation-filters="sRGB">
<feFlood flood-opacity="0" result="BackgroundImageFix"/>
<feColorMatrix in="SourceAlpha" type="matrix" values="0 0 0 0 0 0 0 0 0 0 0 0 0 0 0 0 0 0 127 0" result="hardAlpha"/>
<feOffset dy="6"/>
<feGaussianBlur stdDeviation="3"/>
<feComposite in2="hardAlpha" operator="out"/>
<feColorMatrix type="matrix" values="0 0 0 0 0 0 0 0 0 0 0 0 0 0 0 0 0 0 0.15 0"/>
<feBlend mode="normal" in2="BackgroundImageFix" result="effect1_dropShadow_185_18"/>
<feBlend mode="normal" in="SourceGraphic" in2="effect1_dropShadow_185_18" result="shape"/>
</filter>
</defs>
</svg>
