<svg width="20" height="21" viewBox="0 0 20 21" fill="none" xmlns="http://www.w3.org/2000/svg">
<path fill-rule="evenodd" clip-rule="evenodd" d="M8.52801 0.3638C7.22452 0.577193 6.362 0.847289 5.32305 1.3673C2.72997 2.66525 0.921726 5.03737 0.198927 8.08925C-0.0673559 9.21336 -0.0660523 11.8404 0.201317 13.0242C0.891849 16.0815 2.81471 18.6435 5.4317 19.993C6.41046 20.4977 6.94911 20.6761 7.22256 20.586C7.42735 20.5186 7.44158 20.4187 7.44158 19.0521V17.5904L6.90369 17.6644C6.16894 17.7656 5.00419 17.5244 4.62405 17.1926C4.45761 17.0473 4.17285 16.6099 3.9912 16.2205C3.79369 15.7971 3.41855 15.2672 3.05753 14.9017C2.72563 14.5657 2.47912 14.2486 2.50975 14.1972C2.6197 14.0126 3.37401 14.1089 3.76957 14.3578C3.99077 14.497 4.36961 14.8863 4.61144 15.2229C5.22299 16.074 5.50709 16.2437 6.32093 16.2446C7.1275 16.2455 7.55023 16.0999 7.55023 15.8211C7.55023 15.7087 7.648 15.4178 7.76751 15.1745C7.88702 14.9312 7.9848 14.7246 7.9848 14.7153C7.9848 14.7059 7.61204 14.6358 7.1564 14.5595C5.95046 14.3577 4.67109 13.6556 4.27107 12.9763C3.85388 12.2677 3.63225 11.2899 3.61954 10.1018C3.60813 9.03108 3.73187 8.55999 4.20599 7.86909C4.42784 7.5459 4.44902 7.40488 4.41567 6.47307C4.39362 5.8569 4.43197 5.2688 4.5103 5.02272L4.64197 4.60867L5.21973 4.65849C5.65409 4.69581 6.01033 4.83638 6.65327 5.22405L7.50894 5.73989L8.09648 5.58173C8.8811 5.37048 11.2203 5.37465 11.9951 5.58861C12.5446 5.74034 12.6025 5.73673 12.8797 5.53191C13.4772 5.09047 14.5568 4.63471 15.0053 4.6346C15.4413 4.63448 15.4559 4.64688 15.5689 5.11358C15.7837 5.99995 15.7922 6.11809 15.6885 6.78578C15.5876 7.4361 15.5938 7.46417 15.9593 8.01552C16.5095 8.84542 16.6031 9.24301 16.5405 10.4848C16.4467 12.3456 15.9078 13.3655 14.6896 13.987C14.3182 14.1764 13.5989 14.4121 13.091 14.5108C12.5831 14.6094 12.1519 14.7055 12.1328 14.7242C12.1136 14.7429 12.2073 14.9786 12.3409 15.2481C12.564 15.6982 12.5879 15.9335 12.6345 18.1352C12.6841 20.4839 12.69 20.5335 12.9222 20.594C13.2845 20.6884 14.5221 20.1531 15.5512 19.4571C17.6532 18.0354 19.0721 15.9656 19.7339 13.3558C20.0854 11.97 20.0893 9.19747 19.7418 7.88126C18.5592 3.40237 14.8338 0.455673 10.1576 0.300222C9.58999 0.281396 8.85665 0.310029 8.52801 0.3638ZM4.29095 15.506C4.29095 15.6026 4.33984 15.6818 4.39959 15.6818C4.45934 15.6818 4.50823 15.6341 4.50823 15.5757C4.50823 15.5173 4.45934 15.4383 4.39959 15.4C4.33984 15.3616 4.29095 15.4094 4.29095 15.506ZM4.77984 16.1327C4.81678 16.1947 4.89294 16.2454 4.94921 16.2454C5.00549 16.2454 5.05145 16.1947 5.05145 16.1327C5.05145 16.0707 4.97518 16.02 4.88207 16.02C4.78897 16.02 4.7429 16.0707 4.77984 16.1327ZM5.48602 16.5836C5.48602 16.6456 5.56228 16.6963 5.65539 16.6963C5.7485 16.6963 5.79456 16.6456 5.75762 16.5836C5.72068 16.5216 5.64453 16.4709 5.58825 16.4709C5.53197 16.4709 5.48602 16.5216 5.48602 16.5836ZM7.06133 16.5836C7.0244 16.6456 7.07046 16.6963 7.16357 16.6963C7.25667 16.6963 7.33294 16.6456 7.33294 16.5836C7.33294 16.5216 7.28698 16.4709 7.23071 16.4709C7.17443 16.4709 7.09827 16.5216 7.06133 16.5836ZM6.24651 16.6963C6.24651 16.7583 6.31985 16.8091 6.40948 16.8091C6.49911 16.8091 6.57244 16.7583 6.57244 16.6963C6.57244 16.6343 6.49911 16.5836 6.40948 16.5836C6.31985 16.5836 6.24651 16.6343 6.24651 16.6963Z" fill="#E7EA4B"/>
</svg>
