<svg width="20" height="21" viewBox="0 0 20 21" fill="none" xmlns="http://www.w3.org/2000/svg">
<path fill-rule="evenodd" clip-rule="evenodd" d="M0.863658 0.421727C0.622314 0.492013 0.379053 0.686779 0.235325 0.924855C0.00787435 1.30156 0.000687936 1.59166 0.000328614 10.4227C-0.000150481 20.482 -0.0346455 20.0294 0.761251 20.4108C1.13159 20.5883 2.08032 20.6086 10.019 20.6084C18.2008 20.6083 18.8955 20.5924 19.2817 20.3967C19.5114 20.2804 19.7666 20.0491 19.8489 19.8828C19.9646 19.6491 19.9988 17.5062 19.9999 10.4469C20.0011 1.61235 19.9936 1.30084 19.7683 0.927637C19.6118 0.668512 19.3861 0.499997 19.08 0.414227C18.4938 0.249824 1.42971 0.256841 0.863658 0.421727ZM5.38404 3.36706C6.19718 3.7918 6.5159 5.04919 6.0168 5.86346C5.04544 7.44797 2.57882 6.60648 2.80878 4.76902C2.89023 4.1177 3.12259 3.73736 3.62947 3.42513C4.08761 3.14302 4.90351 3.11604 5.38404 3.36706ZM15.3908 8.07376C16.1801 8.45072 16.5937 8.91598 16.9156 9.78953C17.1624 10.4589 17.1832 10.7508 17.2232 14.1063L17.266 17.7053H15.6931H14.1201L14.14 14.7717C14.163 11.389 14.0957 11.0068 13.4145 10.6519C12.8046 10.3341 11.9521 10.431 11.499 10.8695C10.9953 11.3569 10.8993 12.0264 10.8993 15.0498V17.7053H9.40077H7.90216L7.93354 12.8361L7.9648 7.96694H9.3422H10.7196L10.7564 8.48108C10.7767 8.76391 10.828 8.99522 10.8705 8.99522C10.913 8.99522 11.1133 8.83311 11.3156 8.63508C11.9794 7.98533 12.5188 7.79552 13.7139 7.79153C14.6034 7.78851 14.8967 7.83787 15.3908 8.07376ZM5.91883 7.97989C6.08723 8.04509 6.10831 8.5902 6.10831 12.8793V17.7053H4.55125H2.99419V12.8764C2.99419 9.12659 3.02761 8.03396 3.14391 7.98654C3.3601 7.89847 5.69425 7.89279 5.91883 7.97989Z" fill="#E7EA4B"/>
</svg>
