<svg width="112" height="46" viewBox="0 0 112 46" fill="none" xmlns="http://www.w3.org/2000/svg">
<path d="M13.272 32.968L15.128 45H18.456L11.48 0.199997H7.576L0.664 45H4.056L5.912 32.968V33.032H13.272V32.968ZM12.888 29.96H6.296L7.96 19.08L9.56 5.832L11.16 19.08L12.888 29.96ZM22.295 45H25.495V39.112H22.295V45ZM30.9545 45H34.3465V0.199997H30.9545V45Z" fill="#E6E67D"/>
<path d="M68.035 29.832H58.243V32.776H64.771V36.104C64.771 40.392 62.723 42.312 59.523 42.312C55.939 42.312 54.083 39.816 54.083 36.04V9.48C54.083 5.704 56.195 3.016 59.459 3.016C63.299 3.016 64.899 5.896 64.899 9.416V13.512H68.099V9.416C68.099 3.912 64.835 0.00799942 59.395 0.00799942C53.955 0.00799942 50.691 4.296 50.691 9.48V36.04C50.691 41.992 54.275 45.384 59.523 45.384C64.899 45.384 68.035 41.416 68.035 36.104V29.832ZM88.2935 9.16H84.7735L81.4455 22.152L79.7815 30.792L78.0535 22.088L74.6615 9.16H71.3975L78.0535 35.976V45H81.3815V35.976L88.2935 9.16ZM107.487 17.544H107.615L107.295 28.808L107.999 45H111.263L109.919 9.16H106.015L102.367 31.752L101.535 39.176L100.767 31.688L96.735 9.16H92.959L91.615 45H94.751L95.391 28.872L95.519 17.352H95.647L97.119 28.744L99.871 44.168H103.135L105.887 28.552L107.487 17.544Z" fill="#23262B"/>
</svg>
