<svg width="126" height="52" viewBox="0 0 126 52" fill="none" xmlns="http://www.w3.org/2000/svg">
<path d="M15.056 37.464L17.144 51H20.888L13.04 0.599997H8.648L0.872 51H4.688L6.776 37.464V37.536H15.056V37.464ZM14.624 34.08H7.208L9.08 21.84L10.88 6.936L12.68 21.84L14.624 34.08ZM25.2069 51H28.8069V44.376H25.2069V51ZM34.9488 51H38.7648V0.599997H34.9488V51Z" fill="#E6E67D"/>
<path d="M76.6644 33.936H65.6484V37.248H72.9924V40.992C72.9924 45.816 70.6884 47.976 67.0884 47.976C63.0564 47.976 60.9684 45.168 60.9684 40.92V11.04C60.9684 6.792 63.3444 3.768 67.0164 3.768C71.3364 3.768 73.1364 7.008 73.1364 10.968V15.576H76.7364V10.968C76.7364 4.776 73.0644 0.383999 66.9444 0.383999C60.8244 0.383999 57.1524 5.208 57.1524 11.04V40.92C57.1524 47.616 61.1844 51.432 67.0884 51.432C73.1364 51.432 76.6644 46.968 76.6644 40.992V33.936ZM99.4552 10.68H95.4952L91.7512 25.296L89.8792 35.016L87.9352 25.224L84.1192 10.68H80.4472L87.9352 40.848V51H91.6792V40.848L99.4552 10.68ZM121.048 20.112H121.192L120.832 32.784L121.624 51H125.296L123.784 10.68H119.392L115.288 36.096L114.352 44.448L113.488 36.024L108.952 10.68H104.704L103.192 51H106.72L107.44 32.856L107.584 19.896H107.728L109.384 32.712L112.48 50.064H116.152L119.248 32.496L121.048 20.112Z" fill="white"/>
</svg>
