<svg width="116" height="93" viewBox="0 0 116 93" fill="none" xmlns="http://www.w3.org/2000/svg">
<path fill-rule="evenodd" clip-rule="evenodd" d="M27.7639 0.348167C24.9035 0.926493 21.0041 3.10577 18.6758 5.42733C16.9126 7.18562 9.70671 19.4616 3.45722 31.3524C0.117655 37.7067 -0.00565448 38.5312 0.000171189 54.4709C0.00551139 70.6383 0.179311 71.5104 3.87619 73.9572C5.60398 75.1012 6.5225 75.3285 10.1038 75.4989C14.9998 75.7315 17.7792 75.109 19.9322 73.2968C22.5907 71.0598 22.8009 69.9405 22.8009 58.0394V47.2518L25.5491 42.7082C27.0609 40.2089 28.4809 38.051 28.7047 37.9126C28.929 37.7742 29.1115 40.897 29.1115 44.852L29.1106 52.043L31.7894 51.8764L34.4678 51.7094L34.3386 38.7716L34.2095 25.8343L32.8837 25.1992C31.987 24.7694 31.2802 24.7136 30.699 25.0278C30.2267 25.2832 27.0551 29.853 23.6505 35.1832L17.4607 44.8749V56.3496C17.4607 70.345 17.7224 69.7667 11.3923 69.7667C4.99569 69.7667 5.32387 70.5781 5.32387 54.7569C5.32387 43.3482 5.43941 41.3185 6.23316 38.7672C7.00263 36.2937 9.40718 31.8069 20.2565 12.5989C21.7377 9.97722 25.1088 7.00304 27.4973 6.21106C28.5188 5.87261 31.9875 5.47492 35.2052 5.32827C40.1114 5.10394 41.1785 5.18357 41.8154 5.82065C42.2329 6.23825 45.5511 11.7083 49.1892 17.9757L55.8033 29.3713L51.1962 39.0596C48.6625 44.3883 46.5891 49.1892 46.5891 49.7292C46.5891 51.1345 47.7333 51.8905 49.5917 51.7118C51.1996 51.5574 51.2122 51.5356 62.8524 28.4924L74.5037 5.42733L78.6303 5.28069C86.2905 5.00876 91.7807 6.69081 94.1644 10.0394C96.9763 13.9886 109.359 36.788 109.978 39.1557C110.496 41.1354 110.671 45.1036 110.671 54.8157C110.671 70.5693 110.997 69.7667 104.603 69.7667C98.2686 69.7667 98.5346 70.3586 98.5346 56.2583V44.6928L92.4633 35.257C85.2021 23.9731 84.6535 23.4389 82.514 25.5789C81.5926 26.5005 81.5431 27.1978 81.5426 39.2965L81.5416 52.043L84.2127 51.8764L86.8833 51.7104V44.9569C86.8833 41.1956 87.0799 38.204 87.3275 38.204C87.5722 38.204 88.9912 40.1162 90.4811 42.4528L93.1906 46.7016L93.2032 57.6272C93.2177 70.276 93.5338 71.6056 97.087 73.9572C98.8148 75.1012 99.7333 75.3285 103.315 75.4989C108.211 75.7315 110.99 75.109 113.143 73.2968C115.91 70.9685 116.013 70.2755 115.999 54.1222C115.987 40.0725 115.937 39.2776 114.878 36.2617C113.488 32.3037 100.198 8.56563 97.8283 5.80851C96.7015 4.49745 94.7339 3.10189 92.3521 1.92387L88.6344 0.0859539L59.2376 0.00728967C43.0689 -0.0359269 28.9057 0.117517 27.7639 0.348167ZM67.2187 5.66575C67.5265 6.16347 59.3497 22.6654 58.7953 22.6654C58.2122 22.6654 48.4785 6.14793 48.7771 5.66478C49.1757 5.01944 66.8202 5.02042 67.2187 5.66575ZM30.5684 58.7382C29.7422 59.1538 29.3082 59.8234 29.2086 60.8359C28.9441 63.5299 29.5606 63.6804 41.5649 63.8518C47.5323 63.9368 52.4147 64.0961 52.4147 64.2053C52.4147 64.3151 50.4486 67.3757 48.0455 71.0073C45.6424 74.6385 43.6762 78.0303 43.6762 78.544C43.6762 79.0577 44.1131 79.9153 44.6472 80.4494C46.6502 82.4529 47.4663 81.7784 52.9444 73.5853C55.5985 69.6156 57.8729 66.3676 57.9977 66.3676C58.1224 66.3676 60.4051 69.6278 63.0694 73.6129C65.8866 77.8263 68.3377 80.9928 68.9266 81.1797C69.5325 81.372 70.417 81.188 71.1292 80.7213C73.1968 79.3661 72.7031 77.8195 67.9499 70.7645C65.5468 67.1979 63.5806 64.2029 63.5806 64.1097C63.5806 64.0159 68.2232 63.9363 73.8969 63.9324C85.7094 63.9242 86.6406 63.712 86.6406 61.0262C86.6406 59.7317 86.3672 59.217 85.4269 58.7411C83.6719 57.853 32.3322 57.85 30.5684 58.7382ZM29.1227 77.9001C29.1353 87.484 29.6329 89.2064 33.0429 91.4643L35.1081 92.8317L56.8685 92.972C70.887 93.0624 79.2973 92.9322 80.5081 92.6064C82.9864 91.9387 84.7501 90.4975 85.9376 88.1692C86.8105 86.4575 86.8935 85.463 86.7736 78.1395L86.6406 70.0095L84.0918 69.8628L81.5431 69.7157V77.4024C81.5431 83.5736 81.394 85.3018 80.7872 86.1681L80.0318 87.2475H58.0297C38.1739 87.2475 35.9625 87.1694 35.361 86.4463C34.8722 85.8578 34.6542 83.5358 34.5411 77.7059L34.3867 69.7667H31.7496H29.112L29.1227 77.9001Z" fill="currentColor"/>
</svg>
