<svg width="22" height="33" viewBox="0 0 22 33" fill="none" xmlns="http://www.w3.org/2000/svg">
<path fill-rule="evenodd" clip-rule="evenodd" d="M4.59171 0.188001C3.42158 0.464393 2.73903 0.843051 1.80819 1.73252C0.405595 3.07267 -0.257292 5.20936 0.098314 7.24326C0.335773 8.59983 0.759534 9.45837 1.71387 10.5161L2.47107 11.3553L1.71387 12.1945C0.758868 13.2527 0.335774 14.1107 0.0978144 15.4706C-0.249793 17.4582 0.41176 19.6196 1.77136 20.938L2.58122 21.7233L1.86668 22.406C-0.662722 24.823 -0.61473 29.0796 1.96899 31.4879C3.08064 32.524 4.34492 33.0073 5.92482 32.9999C7.74251 32.9916 8.90164 32.4872 10.1771 31.1498C11.72 29.5321 11.9276 28.7454 11.9255 24.5271C11.9246 22.6981 11.9521 21.2018 11.9869 21.2018C12.0216 21.2018 12.4737 21.4662 12.9916 21.7894C16.0253 23.6832 19.8963 22.4771 21.5306 19.1288C21.9277 18.3157 21.9952 17.9671 21.9999 16.7104C22.0072 14.7575 21.6211 13.6761 20.446 12.3572L19.5533 11.3553L20.4717 10.3268C21.6536 9.00353 22.0091 7.99107 21.9912 6.00019C21.9812 4.89168 21.8903 4.32905 21.6198 3.70423C21.0922 2.48568 19.7701 1.12463 18.543 0.536946L17.5062 0.0404764L11.5072 0.0059274C7.1916 -0.0187752 5.2511 0.0321846 4.59171 0.188001ZM10.0521 6.12975L10.0968 10.3188L7.63586 10.3178C4.84084 10.3167 4.15795 10.1746 3.33093 9.42192C1.61139 7.85668 1.32094 5.52876 2.61272 3.66398C3.59572 2.24505 4.72102 1.86069 7.75784 1.90664L10.0075 1.94067L10.0521 6.12975ZM17.1191 2.03275C18.1626 2.33315 19.2857 3.24231 19.7321 4.14801C20.5626 5.83297 20.3378 7.57545 19.1074 8.99041C18.0941 10.1556 17.5602 10.3107 14.5483 10.315L11.9238 10.3188V6.20178C11.9238 3.93726 11.9738 2.03275 12.0349 1.96952C12.2121 1.78572 16.444 1.83824 17.1191 2.03275ZM10.0908 16.5376V20.6835H7.50255C4.62221 20.6835 4.07847 20.5486 3.11896 19.5951C1.42275 17.9096 1.38543 15.2569 3.03348 13.5308C3.96482 12.5553 4.57271 12.3997 7.46622 12.3956L10.0908 12.3918V16.5376ZM18.0431 12.8321C20.9351 14.326 20.9736 18.6498 18.1087 20.2012C16.5167 21.0634 14.5075 20.811 13.2839 19.5951C12.4077 18.7244 12.0424 17.8298 12.0359 16.5382C12.0274 14.8325 12.9578 13.3239 14.4234 12.6668C15.3787 12.2385 17.0409 12.3144 18.0431 12.8321ZM10.0613 25.3908C9.99412 28.3667 9.81682 28.9489 8.65468 30.0066C7.81349 30.772 7.02946 31.084 5.92915 31.0909C3.61505 31.1052 1.84501 29.2833 1.86001 26.9024C1.87101 25.1746 2.61188 23.9671 4.17512 23.1291C4.76451 22.8131 5.14728 22.7708 7.48122 22.7641L10.1206 22.7565L10.0613 25.3908Z" fill="#5449CD"/>
</svg>
