<svg width="32" height="32" viewBox="0 0 32 32" fill="none" xmlns="http://www.w3.org/2000/svg">
<path fill-rule="evenodd" clip-rule="evenodd" d="M13.6448 0.109271C11.5592 0.445423 10.1792 0.870897 8.51688 1.69006C4.36796 3.73467 1.47476 7.47142 0.318283 12.2789C-0.10777 14.0497 -0.105684 18.188 0.322107 20.0529C1.42696 24.8689 4.50354 28.9047 8.69071 31.0307C10.2567 31.8257 11.1186 32.1066 11.5561 31.9647C11.8838 31.8585 11.9065 31.7012 11.9065 29.5484V27.2458L11.0459 27.3625C9.87031 27.5217 8.0067 27.1419 7.39848 26.6191C7.13217 26.3902 6.67657 25.7012 6.38593 25.0879C6.06991 24.4209 5.46968 23.5861 4.89205 23.0104C4.361 22.4811 3.96659 21.9815 4.01561 21.9006C4.19152 21.6099 5.39841 21.7615 6.03132 22.1536C6.38523 22.3729 6.99137 22.9861 7.37831 23.5163C8.35679 24.857 8.81135 25.1245 10.1135 25.1259C11.404 25.1273 12.0804 24.8979 12.0804 24.4587C12.0804 24.2817 12.2368 23.8234 12.428 23.4402C12.6192 23.0569 12.7757 22.7314 12.7757 22.7167C12.7757 22.702 12.1793 22.5915 11.4502 22.4713C9.52074 22.1534 7.47374 21.0475 6.83371 19.9774C6.16621 18.8612 5.8116 17.3209 5.79126 15.4492C5.77301 13.7626 5.971 13.0205 6.72959 11.9321C7.08454 11.423 7.11844 11.2009 7.06507 9.73303C7.02979 8.76239 7.09115 7.83598 7.21648 7.44833L7.42716 6.79609L8.35157 6.87458C9.04654 6.93336 9.61652 7.15479 10.6452 7.76548L12.0143 8.57807L12.9544 8.32893C14.2098 7.99615 17.9524 8.00272 19.1922 8.33976C20.0714 8.57878 20.1641 8.5731 20.6075 8.25044C21.5636 7.55505 23.2909 6.83711 24.0084 6.83693C24.706 6.83675 24.7295 6.85629 24.9103 7.59145C25.2539 8.98774 25.2675 9.17384 25.1016 10.2256C24.9402 11.2501 24.9501 11.2943 25.5348 12.1628C26.4153 13.4701 26.5649 14.0964 26.4648 16.0526C26.3148 18.9839 25.4524 20.5904 23.5033 21.5696C22.9092 21.8679 21.7582 22.2392 20.9456 22.3946C20.1329 22.55 19.443 22.7013 19.4124 22.7307C19.3818 22.7602 19.5317 23.1315 19.7455 23.5561C20.1024 24.2652 20.1406 24.6358 20.2152 28.104C20.2946 31.8038 20.304 31.882 20.6755 31.9773C21.2552 32.1259 23.2354 31.2828 24.8819 30.1865C28.2452 27.9469 30.5154 24.6864 31.5743 20.5751C32.1366 18.3922 32.1429 14.0247 31.5868 11.9513C29.6947 4.89585 23.7341 0.253996 16.2522 0.00911815C15.344 -0.0205371 14.1706 0.0245672 13.6448 0.109271ZM6.86552 23.9624C6.86552 24.1146 6.94374 24.2392 7.03935 24.2392C7.13495 24.2392 7.21317 24.1641 7.21317 24.0721C7.21317 23.9802 7.13495 23.8557 7.03935 23.7953C6.94374 23.7349 6.86552 23.8102 6.86552 23.9624ZM7.64775 24.9496C7.70685 25.0472 7.8287 25.1271 7.91874 25.1271C8.00879 25.1271 8.08232 25.0472 8.08232 24.9496C8.08232 24.8519 7.96029 24.772 7.81132 24.772C7.66235 24.772 7.58864 24.8519 7.64775 24.9496ZM8.77763 25.6599C8.77763 25.7575 8.89965 25.8374 9.04862 25.8374C9.1976 25.8374 9.2713 25.7575 9.2122 25.6599C9.1531 25.5622 9.03124 25.4823 8.9412 25.4823C8.85116 25.4823 8.77763 25.5622 8.77763 25.6599ZM11.2981 25.6599C11.239 25.7575 11.3127 25.8374 11.4617 25.8374C11.6107 25.8374 11.7327 25.7575 11.7327 25.6599C11.7327 25.5622 11.6592 25.4823 11.5691 25.4823C11.4791 25.4823 11.3572 25.5622 11.2981 25.6599ZM9.99442 25.8374C9.99442 25.9351 10.1118 26.015 10.2552 26.015C10.3986 26.015 10.5159 25.9351 10.5159 25.8374C10.5159 25.7398 10.3986 25.6599 10.2552 25.6599C10.1118 25.6599 9.99442 25.7398 9.99442 25.8374Z" fill="#5449CD"/>
</svg>
