<svg width="1197" height="527" viewBox="0 0 1197 527" fill="none" xmlns="http://www.w3.org/2000/svg">
<rect width="1197" height="527" rx="25" fill="white"/>
<rect x="108" y="297" width="45" height="93" rx="5" fill="#686868"/>
<rect x="186" y="297" width="45" height="93" rx="5" fill="#686868"/>
<rect x="264" y="249" width="45" height="141" rx="5" fill="#686868"/>
<rect x="342" y="281" width="45" height="109" rx="5" fill="#686868"/>
<rect x="420" y="249" width="45" height="141" rx="5" fill="#686868"/>
<rect x="498" y="218" width="45" height="172" rx="5" fill="#686868"/>
<rect x="576" y="326" width="45" height="64" rx="5" fill="#686868"/>
<rect x="654" y="249" width="45" height="141" rx="5" fill="#686868"/>
<rect x="732" y="199" width="45" height="191" rx="5" fill="#686868"/>
<rect x="1044" y="180" width="45" height="210" rx="5" fill="#686868"/>
<rect x="810" y="122" width="45" height="268" rx="5" fill="#5449CD"/>
<rect x="888" y="79" width="45" height="311" rx="5" fill="#5449CD"/>
<rect x="966" y="122" width="45" height="268" rx="5" fill="#5449CD"/>
<path d="M127.328 431.152C127.648 432.837 128.629 433.68 130.272 433.68C131.403 433.68 132.203 433.179 132.672 432.176C133.141 431.173 133.376 429.541 133.376 427.28C132.907 427.941 132.267 428.453 131.456 428.816C130.645 429.179 129.739 429.36 128.736 429.36C127.371 429.36 126.155 429.083 125.088 428.528C124.021 427.952 123.179 427.109 122.56 426C121.963 424.869 121.664 423.504 121.664 421.904C121.664 420.325 121.984 418.949 122.624 417.776C123.285 416.603 124.213 415.696 125.408 415.056C126.624 414.416 128.053 414.096 129.696 414.096C132.853 414.096 135.061 415.077 136.32 417.04C137.579 419.003 138.208 421.893 138.208 425.712C138.208 428.485 137.952 430.779 137.44 432.592C136.949 434.384 136.107 435.749 134.912 436.688C133.739 437.627 132.128 438.096 130.08 438.096C128.459 438.096 127.072 437.776 125.92 437.136C124.789 436.496 123.915 435.653 123.296 434.608C122.699 433.563 122.357 432.411 122.272 431.152H127.328ZM129.984 425.04C130.88 425.04 131.595 424.773 132.128 424.24C132.661 423.685 132.928 422.939 132.928 422C132.928 420.976 132.651 420.187 132.096 419.632C131.541 419.077 130.795 418.8 129.856 418.8C128.917 418.8 128.171 419.088 127.616 419.664C127.083 420.219 126.816 420.987 126.816 421.968C126.816 422.885 127.083 423.632 127.616 424.208C128.171 424.763 128.96 425.04 129.984 425.04Z" fill="#23262B"/>
<path d="M192.864 419.728V414.64H201.728V438H196.032V419.728H192.864ZM205.471 426C205.471 422.331 206.175 419.44 207.583 417.328C209.013 415.216 211.306 414.16 214.463 414.16C217.621 414.16 219.903 415.216 221.311 417.328C222.741 419.44 223.455 422.331 223.455 426C223.455 429.712 222.741 432.624 221.311 434.736C219.903 436.848 217.621 437.904 214.463 437.904C211.306 437.904 209.013 436.848 207.583 434.736C206.175 432.624 205.471 429.712 205.471 426ZM218.079 426C218.079 423.845 217.845 422.192 217.375 421.04C216.906 419.867 215.935 419.28 214.463 419.28C212.991 419.28 212.021 419.867 211.551 421.04C211.082 422.192 210.847 423.845 210.847 426C210.847 427.451 210.933 428.656 211.103 429.616C211.274 430.555 211.615 431.323 212.127 431.92C212.661 432.496 213.439 432.784 214.463 432.784C215.487 432.784 216.255 432.496 216.767 431.92C217.301 431.323 217.653 430.555 217.823 429.616C217.994 428.656 218.079 427.451 218.079 426Z" fill="#23262B"/>
<path d="M274.864 419.728V414.64H283.728V438H278.032V419.728H274.864ZM286.895 419.728V414.64H295.759V438H290.063V419.728H286.895Z" fill="#23262B"/>
<path d="M349.864 419.728V414.64H358.728V438H353.032V419.728H349.864ZM362.279 433.616C363.005 433.04 363.335 432.773 363.271 432.816C365.362 431.088 367.005 429.669 368.199 428.56C369.415 427.451 370.439 426.288 371.271 425.072C372.103 423.856 372.519 422.672 372.519 421.52C372.519 420.645 372.317 419.963 371.911 419.472C371.506 418.981 370.898 418.736 370.087 418.736C369.277 418.736 368.637 419.045 368.167 419.664C367.719 420.261 367.495 421.115 367.495 422.224H362.215C362.258 420.411 362.642 418.896 363.367 417.68C364.114 416.464 365.085 415.568 366.279 414.992C367.495 414.416 368.839 414.128 370.311 414.128C372.85 414.128 374.759 414.779 376.039 416.08C377.341 417.381 377.991 419.077 377.991 421.168C377.991 423.451 377.213 425.573 375.655 427.536C374.098 429.477 372.114 431.376 369.703 433.232H378.343V437.68H362.279V433.616Z" fill="#23262B"/>
<path d="M426.864 419.728V414.64H435.728V438H430.032V419.728H426.864ZM439.663 421.232C439.749 418.949 440.495 417.189 441.903 415.952C443.311 414.715 445.221 414.096 447.631 414.096C449.231 414.096 450.597 414.373 451.727 414.928C452.879 415.483 453.743 416.24 454.319 417.2C454.917 418.16 455.215 419.237 455.215 420.432C455.215 421.84 454.863 422.992 454.159 423.888C453.455 424.763 452.634 425.36 451.695 425.68V425.808C452.911 426.213 453.871 426.885 454.575 427.824C455.279 428.763 455.631 429.968 455.631 431.44C455.631 432.763 455.322 433.936 454.703 434.96C454.106 435.963 453.221 436.752 452.047 437.328C450.895 437.904 449.519 438.192 447.919 438.192C445.359 438.192 443.311 437.563 441.775 436.304C440.261 435.045 439.461 433.147 439.375 430.608H444.687C444.709 431.547 444.975 432.293 445.487 432.848C445.999 433.381 446.746 433.648 447.727 433.648C448.559 433.648 449.199 433.413 449.647 432.944C450.117 432.453 450.351 431.813 450.351 431.024C450.351 430 450.021 429.264 449.359 428.816C448.719 428.347 447.685 428.112 446.255 428.112H445.231V423.664H446.255C447.343 423.664 448.218 423.483 448.879 423.12C449.562 422.736 449.903 422.064 449.903 421.104C449.903 420.336 449.69 419.739 449.263 419.312C448.837 418.885 448.25 418.672 447.503 418.672C446.693 418.672 446.085 418.917 445.679 419.408C445.295 419.899 445.071 420.507 445.007 421.232H439.663Z" fill="#23262B"/>
<path d="M503.864 419.728V414.64H512.728V438H507.032V419.728H503.864ZM516.599 433.84V429.424L526.711 414.96H532.823V429.104H535.447V433.84H532.823V438H527.351V433.84H516.599ZM527.735 420.976L522.359 429.104H527.735V420.976Z" fill="#23262B"/>
<path d="M582.864 419.728V414.64H591.728V438H586.032V419.728H582.864ZM611.919 419.408H601.935V423.824C602.362 423.355 602.959 422.971 603.727 422.672C604.495 422.373 605.327 422.224 606.223 422.224C607.823 422.224 609.146 422.587 610.191 423.312C611.258 424.037 612.037 424.976 612.527 426.128C613.018 427.28 613.263 428.528 613.263 429.872C613.263 432.368 612.559 434.352 611.151 435.824C609.743 437.275 607.759 438 605.199 438C603.493 438 602.01 437.712 600.751 437.136C599.493 436.539 598.522 435.717 597.839 434.672C597.157 433.627 596.783 432.421 596.719 431.056H602.063C602.191 431.717 602.501 432.272 602.991 432.72C603.482 433.147 604.154 433.36 605.007 433.36C606.01 433.36 606.757 433.04 607.247 432.4C607.738 431.76 607.983 430.907 607.983 429.84C607.983 428.795 607.727 427.995 607.215 427.44C606.703 426.885 605.957 426.608 604.975 426.608C604.25 426.608 603.653 426.789 603.183 427.152C602.714 427.493 602.405 427.952 602.255 428.528H596.975V414.608H611.919V419.408Z" fill="#23262B"/>
<path d="M660.864 419.728V414.64H669.728V438H664.032V419.728H660.864ZM685.023 420.944C684.853 420.155 684.554 419.568 684.127 419.184C683.701 418.779 683.093 418.576 682.303 418.576C681.087 418.576 680.213 419.109 679.679 420.176C679.146 421.221 678.869 422.885 678.847 425.168C679.317 424.421 679.989 423.835 680.863 423.408C681.759 422.981 682.741 422.768 683.807 422.768C685.898 422.768 687.573 423.429 688.831 424.752C690.111 426.075 690.751 427.92 690.751 430.288C690.751 431.845 690.431 433.211 689.791 434.384C689.173 435.557 688.255 436.475 687.039 437.136C685.845 437.797 684.426 438.128 682.783 438.128C679.498 438.128 677.215 437.104 675.935 435.056C674.655 432.987 674.015 430.021 674.015 426.16C674.015 422.107 674.687 419.099 676.031 417.136C677.397 415.152 679.573 414.16 682.559 414.16C684.159 414.16 685.503 414.48 686.591 415.12C687.701 415.739 688.533 416.56 689.087 417.584C689.663 418.608 690.005 419.728 690.111 420.944H685.023ZM682.495 427.088C681.578 427.088 680.81 427.365 680.191 427.92C679.594 428.453 679.295 429.221 679.295 430.224C679.295 431.248 679.573 432.048 680.127 432.624C680.703 433.2 681.514 433.488 682.559 433.488C683.498 433.488 684.234 433.211 684.767 432.656C685.322 432.08 685.599 431.301 685.599 430.32C685.599 429.317 685.333 428.528 684.799 427.952C684.266 427.376 683.498 427.088 682.495 427.088Z" fill="#23262B"/>
<path d="M739.864 419.728V414.64H748.728V438H743.032V419.728H739.864ZM767.383 418.736L759.351 438H753.751L761.879 419.344H751.927V414.672H767.383V418.736Z" fill="#23262B"/>
<path d="M816.864 419.728V414.64H825.728V438H820.032V419.728H816.864ZM833.311 425.456C831.306 424.389 830.303 422.715 830.303 420.432C830.303 419.28 830.602 418.235 831.199 417.296C831.797 416.336 832.703 415.579 833.919 415.024C835.135 414.448 836.629 414.16 838.399 414.16C840.17 414.16 841.653 414.448 842.847 415.024C844.063 415.579 844.97 416.336 845.567 417.296C846.165 418.235 846.463 419.28 846.463 420.432C846.463 421.584 846.186 422.587 845.631 423.44C845.098 424.293 844.373 424.965 843.455 425.456C844.607 426.011 845.493 426.779 846.111 427.76C846.73 428.72 847.039 429.851 847.039 431.152C847.039 432.667 846.655 433.979 845.887 435.088C845.119 436.176 844.074 437.008 842.751 437.584C841.45 438.16 839.999 438.448 838.399 438.448C836.799 438.448 835.338 438.16 834.015 437.584C832.714 437.008 831.679 436.176 830.911 435.088C830.143 433.979 829.759 432.667 829.759 431.152C829.759 429.829 830.069 428.688 830.687 427.728C831.306 426.747 832.181 425.989 833.311 425.456ZM841.151 421.264C841.151 420.389 840.895 419.717 840.383 419.248C839.893 418.757 839.231 418.512 838.399 418.512C837.567 418.512 836.895 418.757 836.383 419.248C835.893 419.739 835.647 420.421 835.647 421.296C835.647 422.128 835.903 422.789 836.415 423.28C836.927 423.749 837.589 423.984 838.399 423.984C839.21 423.984 839.871 423.739 840.383 423.248C840.895 422.757 841.151 422.096 841.151 421.264ZM838.399 427.824C837.397 427.824 836.586 428.101 835.967 428.656C835.349 429.189 835.039 429.936 835.039 430.896C835.039 431.792 835.338 432.528 835.935 433.104C836.554 433.68 837.375 433.968 838.399 433.968C839.423 433.968 840.223 433.68 840.799 433.104C841.397 432.528 841.695 431.792 841.695 430.896C841.695 429.957 841.386 429.211 840.767 428.656C840.17 428.101 839.381 427.824 838.399 427.824Z" fill="#23262B"/>
<path d="M894.864 419.728V414.64H903.728V438H898.032V419.728H894.864ZM913.359 431.152C913.679 432.837 914.661 433.68 916.303 433.68C917.434 433.68 918.234 433.179 918.703 432.176C919.173 431.173 919.407 429.541 919.407 427.28C918.938 427.941 918.298 428.453 917.487 428.816C916.677 429.179 915.77 429.36 914.767 429.36C913.402 429.36 912.186 429.083 911.119 428.528C910.053 427.952 909.21 427.109 908.591 426C907.994 424.869 907.695 423.504 907.695 421.904C907.695 420.325 908.015 418.949 908.655 417.776C909.317 416.603 910.245 415.696 911.439 415.056C912.655 414.416 914.085 414.096 915.727 414.096C918.885 414.096 921.093 415.077 922.351 417.04C923.61 419.003 924.239 421.893 924.239 425.712C924.239 428.485 923.983 430.779 923.471 432.592C922.981 434.384 922.138 435.749 920.943 436.688C919.77 437.627 918.159 438.096 916.111 438.096C914.49 438.096 913.103 437.776 911.951 437.136C910.821 436.496 909.946 435.653 909.327 434.608C908.73 433.563 908.389 432.411 908.303 431.152H913.359ZM916.015 425.04C916.911 425.04 917.626 424.773 918.159 424.24C918.693 423.685 918.959 422.939 918.959 422C918.959 420.976 918.682 420.187 918.127 419.632C917.573 419.077 916.826 418.8 915.887 418.8C914.949 418.8 914.202 419.088 913.647 419.664C913.114 420.219 912.847 420.987 912.847 421.968C912.847 422.885 913.114 423.632 913.647 424.208C914.202 424.763 914.991 425.04 916.015 425.04Z" fill="#23262B"/>
<path d="M969.248 433.616C969.973 433.04 970.304 432.773 970.24 432.816C972.331 431.088 973.973 429.669 975.168 428.56C976.384 427.451 977.408 426.288 978.24 425.072C979.072 423.856 979.488 422.672 979.488 421.52C979.488 420.645 979.285 419.963 978.88 419.472C978.475 418.981 977.867 418.736 977.056 418.736C976.245 418.736 975.605 419.045 975.136 419.664C974.688 420.261 974.464 421.115 974.464 422.224H969.184C969.227 420.411 969.611 418.896 970.336 417.68C971.083 416.464 972.053 415.568 973.248 414.992C974.464 414.416 975.808 414.128 977.28 414.128C979.819 414.128 981.728 414.779 983.008 416.08C984.309 417.381 984.96 419.077 984.96 421.168C984.96 423.451 984.181 425.573 982.624 427.536C981.067 429.477 979.083 431.376 976.672 433.232H985.312V437.68H969.248V433.616ZM987.721 426C987.721 422.331 988.425 419.44 989.833 417.328C991.263 415.216 993.556 414.16 996.713 414.16C999.871 414.16 1002.15 415.216 1003.56 417.328C1004.99 419.44 1005.71 422.331 1005.71 426C1005.71 429.712 1004.99 432.624 1003.56 434.736C1002.15 436.848 999.871 437.904 996.713 437.904C993.556 437.904 991.263 436.848 989.833 434.736C988.425 432.624 987.721 429.712 987.721 426ZM1000.33 426C1000.33 423.845 1000.09 422.192 999.625 421.04C999.156 419.867 998.185 419.28 996.713 419.28C995.241 419.28 994.271 419.867 993.801 421.04C993.332 422.192 993.097 423.845 993.097 426C993.097 427.451 993.183 428.656 993.353 429.616C993.524 430.555 993.865 431.323 994.377 431.92C994.911 432.496 995.689 432.784 996.713 432.784C997.737 432.784 998.505 432.496 999.017 431.92C999.551 431.323 999.903 430.555 1000.07 429.616C1000.24 428.656 1000.33 427.451 1000.33 426Z" fill="#23262B"/>
<path d="M1052.25 433.616C1052.97 433.04 1053.3 432.773 1053.24 432.816C1055.33 431.088 1056.97 429.669 1058.17 428.56C1059.38 427.451 1060.41 426.288 1061.24 425.072C1062.07 423.856 1062.49 422.672 1062.49 421.52C1062.49 420.645 1062.29 419.963 1061.88 419.472C1061.47 418.981 1060.87 418.736 1060.06 418.736C1059.25 418.736 1058.61 419.045 1058.14 419.664C1057.69 420.261 1057.46 421.115 1057.46 422.224H1052.18C1052.23 420.411 1052.61 418.896 1053.34 417.68C1054.08 416.464 1055.05 415.568 1056.25 414.992C1057.46 414.416 1058.81 414.128 1060.28 414.128C1062.82 414.128 1064.73 414.779 1066.01 416.08C1067.31 417.381 1067.96 419.077 1067.96 421.168C1067.96 423.451 1067.18 425.573 1065.62 427.536C1064.07 429.477 1062.08 431.376 1059.67 433.232H1068.31V437.68H1052.25V433.616ZM1070.15 419.728V414.64H1079.01V438H1073.31V419.728H1070.15Z" fill="#23262B"/>
<path d="M602.48 485.976C603.504 485.976 604.325 486.317 604.944 487C605.563 487.672 605.872 488.6 605.872 489.784V495H603.152V490.152C603.152 489.555 602.997 489.091 602.688 488.76C602.379 488.429 601.963 488.264 601.44 488.264C600.917 488.264 600.501 488.429 600.192 488.76C599.883 489.091 599.728 489.555 599.728 490.152V495H596.992V483.16H599.728V487.272C600.005 486.877 600.384 486.563 600.864 486.328C601.344 486.093 601.883 485.976 602.48 485.976ZM611.837 495.128C610.963 495.128 610.173 494.941 609.469 494.568C608.776 494.195 608.227 493.661 607.821 492.968C607.427 492.275 607.229 491.464 607.229 490.536C607.229 489.619 607.432 488.813 607.837 488.12C608.243 487.416 608.797 486.877 609.501 486.504C610.205 486.131 610.995 485.944 611.869 485.944C612.744 485.944 613.533 486.131 614.237 486.504C614.941 486.877 615.496 487.416 615.901 488.12C616.307 488.813 616.509 489.619 616.509 490.536C616.509 491.453 616.301 492.264 615.885 492.968C615.48 493.661 614.92 494.195 614.205 494.568C613.501 494.941 612.712 495.128 611.837 495.128ZM611.837 492.76C612.36 492.76 612.803 492.568 613.165 492.184C613.539 491.8 613.725 491.251 613.725 490.536C613.725 489.821 613.544 489.272 613.181 488.888C612.829 488.504 612.392 488.312 611.869 488.312C611.336 488.312 610.893 488.504 610.541 488.888C610.189 489.261 610.013 489.811 610.013 490.536C610.013 491.251 610.184 491.8 610.525 492.184C610.877 492.568 611.315 492.76 611.837 492.76ZM620.697 487.56C621.017 487.069 621.417 486.685 621.897 486.408C622.377 486.12 622.91 485.976 623.497 485.976V488.872H622.745C622.062 488.872 621.55 489.021 621.209 489.32C620.867 489.608 620.697 490.12 620.697 490.856V495H617.961V486.072H620.697V487.56ZM624.261 490.52C624.261 489.603 624.431 488.797 624.773 488.104C625.125 487.411 625.599 486.877 626.197 486.504C626.794 486.131 627.461 485.944 628.197 485.944C628.826 485.944 629.375 486.072 629.845 486.328C630.325 486.584 630.693 486.92 630.949 487.336V486.072H633.685V495H630.949V493.736C630.682 494.152 630.309 494.488 629.829 494.744C629.359 495 628.81 495.128 628.181 495.128C627.455 495.128 626.794 494.941 626.197 494.568C625.599 494.184 625.125 493.645 624.773 492.952C624.431 492.248 624.261 491.437 624.261 490.52ZM630.949 490.536C630.949 489.853 630.757 489.315 630.373 488.92C629.999 488.525 629.541 488.328 628.997 488.328C628.453 488.328 627.989 488.525 627.605 488.92C627.231 489.304 627.045 489.837 627.045 490.52C627.045 491.203 627.231 491.747 627.605 492.152C627.989 492.547 628.453 492.744 628.997 492.744C629.541 492.744 629.999 492.547 630.373 492.152C630.757 491.757 630.949 491.219 630.949 490.536ZM639.296 495.128C638.517 495.128 637.824 494.995 637.216 494.728C636.608 494.461 636.128 494.099 635.776 493.64C635.424 493.171 635.227 492.648 635.184 492.072H637.888C637.92 492.381 638.064 492.632 638.32 492.824C638.576 493.016 638.891 493.112 639.264 493.112C639.605 493.112 639.867 493.048 640.048 492.92C640.24 492.781 640.336 492.605 640.336 492.392C640.336 492.136 640.203 491.949 639.936 491.832C639.669 491.704 639.237 491.565 638.64 491.416C638 491.267 637.467 491.112 637.04 490.952C636.613 490.781 636.245 490.52 635.936 490.168C635.627 489.805 635.472 489.32 635.472 488.712C635.472 488.2 635.611 487.736 635.888 487.32C636.176 486.893 636.592 486.557 637.136 486.312C637.691 486.067 638.347 485.944 639.104 485.944C640.224 485.944 641.104 486.221 641.744 486.776C642.395 487.331 642.768 488.067 642.864 488.984H640.336C640.293 488.675 640.155 488.429 639.92 488.248C639.696 488.067 639.397 487.976 639.024 487.976C638.704 487.976 638.459 488.04 638.288 488.168C638.117 488.285 638.032 488.451 638.032 488.664C638.032 488.92 638.165 489.112 638.432 489.24C638.709 489.368 639.136 489.496 639.712 489.624C640.373 489.795 640.912 489.965 641.328 490.136C641.744 490.296 642.107 490.563 642.416 490.936C642.736 491.299 642.901 491.789 642.912 492.408C642.912 492.931 642.763 493.4 642.464 493.816C642.176 494.221 641.755 494.541 641.2 494.776C640.656 495.011 640.021 495.128 639.296 495.128Z" fill="#686868"/>
</svg>
