<svg width="15" height="15" viewBox="0 0 15 15" fill="none" xmlns="http://www.w3.org/2000/svg">
<path fill-rule="evenodd" clip-rule="evenodd" d="M10.7505 0C13.2922 0 15 1.7835 15 4.437V10.563C15 13.2165 13.2923 15 10.7498 15H4.24875C1.707 15 0 13.2165 0 10.563V4.437C0 1.7835 1.707 0 4.24875 0H10.7505ZM10.7505 1.125H4.24875C2.35125 1.125 1.125 2.42475 1.125 4.437V10.563C1.125 12.5752 2.35125 13.875 4.24875 13.875H10.7498C12.648 13.875 13.875 12.5752 13.875 10.563V4.437C13.875 2.42475 12.648 1.125 10.7505 1.125ZM10.5671 5.32275C10.7869 5.5425 10.7869 5.898 10.5671 6.11775L7.00763 9.67725C6.89813 9.7875 6.75413 9.84225 6.61013 9.84225C6.46688 9.84225 6.32212 9.7875 6.21262 9.67725L4.43213 7.8975C4.21238 7.67775 4.21238 7.32225 4.43213 7.1025C4.65188 6.88275 5.00738 6.88275 5.22713 7.1025L6.61013 8.484L9.77213 5.32275C9.99187 5.103 10.3474 5.103 10.5671 5.32275Z" fill="currentColor"/>
</svg>
