<svg width="120" height="78" viewBox="0 0 120 78" fill="none" xmlns="http://www.w3.org/2000/svg">
<path fill-rule="evenodd" clip-rule="evenodd" d="M30.6462 0.563637C26.4944 1.75128 24.1316 5.10452 24.1115 9.83809L24.1004 12.4431L18.6879 12.3971C12.8315 12.347 11.5587 12.5832 9.35548 14.1307C6.59398 16.0706 6.0482 18.2892 6.03615 27.6278L6.0251 36.0108H4.1287C1.59163 36.0108 0 37.175 0 39.0308C0 40.5597 1.97925 42.403 2.96736 41.7944C3.24301 41.6243 4.04385 41.6293 4.74678 41.8054L6.0251 42.1253L6.03615 50.4538C6.0492 60.2743 6.56837 62.0565 10.0926 64.3802C12.1341 65.726 12.4976 65.7896 18.1652 65.7896H24.1009L24.1115 68.292C24.1265 71.7684 25.5761 74.6832 28.1262 76.3648C29.9131 77.5439 30.8631 77.7782 34.567 77.9538C41.5411 78.2841 44.9086 76.8693 46.7468 72.8359C47.5808 71.0051 47.6777 69.3365 47.6877 56.6733C47.6982 43.2308 47.7454 42.5276 48.6698 42.0342C49.7081 41.4806 69.1998 41.305 71.1715 41.8315L72.3013 42.1333L72.3123 56.4641C72.3249 72.922 72.5121 73.8484 76.327 76.3648C78.114 77.5439 79.0639 77.7782 82.7679 77.9538C91.5811 78.3717 95.1675 75.8613 95.8574 68.7925L96.1506 65.7896L100.695 65.9607C105.985 66.1604 108.782 65.5399 111.008 63.6726C113.645 61.4614 113.975 60.0035 113.975 50.5809V42.0962L115.469 41.7689C116.291 41.5892 117.158 41.5617 117.396 41.7083C118.277 42.2519 120 40.4697 120 39.0137C120 37.183 118.4 36.0108 115.902 36.0108H114.037L113.881 26.8365C113.724 17.6626 113.724 17.6616 112.317 15.8254C110.108 12.9411 108.713 12.4686 102.043 12.346L96.1506 12.2379L95.8559 9.17095C95.2238 2.58959 91.9064 0.0561473 83.8494 0.000593649C78.4037 -0.0369426 74.8413 1.70574 73.2577 5.18159C72.4167 7.02788 72.3223 8.67246 72.3123 21.622L72.3013 36.0108H60H47.6987V21.6029C47.6987 7.64797 47.6631 7.12547 46.569 4.99091C45.1893 2.29981 43.4782 0.995554 40.5982 0.441019C37.7046 -0.116018 32.8122 -0.055961 30.6462 0.563637ZM41.394 7.09444C42.5784 8.77957 42.5784 69.2479 41.394 70.933C40.6875 71.9385 40.19 72.0456 36.2179 72.0456C29.148 72.0456 29.8745 75.8283 29.8745 39.0137C29.8745 2.19922 29.148 5.98187 36.2179 5.98187C40.19 5.98187 40.6875 6.08897 41.394 7.09444ZM89.5948 7.09444C90.2817 8.07188 90.3766 11.9406 90.3766 39.0137C90.3766 66.0869 90.2817 69.9556 89.5948 70.933C88.8884 71.9385 88.3908 72.0456 84.4187 72.0456C77.3488 72.0456 78.0753 75.8283 78.0753 39.0137C78.0753 2.19922 77.3488 5.98187 84.4187 5.98187C88.3908 5.98187 88.8884 6.08897 89.5948 7.09444ZM23.3187 19.106C23.993 20.065 24.1004 22.8226 24.1004 39.1254C24.1004 57.0131 24.0492 58.0831 23.1495 58.98C21.2109 60.9124 14.4482 60.9229 12.5162 58.997C11.5943 58.0781 11.5481 57.1292 11.5481 39.1254C11.5481 22.8226 11.6556 20.065 12.3299 19.106C13.0428 18.0906 13.5233 17.9935 17.8243 17.9935C22.1252 17.9935 22.6057 18.0906 23.3187 19.106ZM107.67 19.106C108.817 20.7386 108.848 57.2453 107.704 58.8739C106.267 60.9184 98.8675 60.9905 96.8505 58.98C95.9508 58.0831 95.8996 57.0106 95.8996 39.0137C95.8996 16.2713 95.3674 17.9935 102.398 17.9935C106.469 17.9935 106.962 18.0976 107.67 19.106Z" fill="currentColor"/>
</svg>
