<svg width="38" height="36" viewBox="0 0 38 36" fill="none" xmlns="http://www.w3.org/2000/svg">
<path fill-rule="evenodd" clip-rule="evenodd" d="M1.64095 0.225587C1.1824 0.350145 0.720201 0.695307 0.447117 1.11722C0.0149613 1.78482 0.00130708 2.29892 0.000624367 17.9491C-0.000285913 35.776 -0.0658264 34.9739 1.44638 35.6499C2.15002 35.9644 3.95261 36.0004 19.0362 36C34.5815 35.9998 35.9014 35.9717 36.6353 35.6248C37.0716 35.4188 37.5565 35.0089 37.7129 34.7141C37.9327 34.2999 37.9978 30.5023 37.9998 17.992C38.0021 2.33558 37.9878 1.78353 37.5597 1.12215C37.2625 0.662935 36.8335 0.364295 36.2521 0.212295C35.1381 -0.0790558 2.71645 -0.0666214 1.64095 0.225587ZM10.2297 5.44525C11.7746 6.19796 12.3802 8.42629 11.4319 9.86932C9.58633 12.6774 4.89975 11.1861 5.33669 7.92977C5.49144 6.77551 5.93292 6.10148 6.896 5.54815C7.76646 5.0482 9.31666 5.0004 10.2297 5.44525ZM29.2425 13.7864C30.7422 14.4544 31.528 15.2789 32.1397 16.827C32.6085 18.0132 32.6481 18.5305 32.7241 24.4772L32.8053 30.8552H29.8169H26.8282L26.866 25.6563C26.9097 19.6616 26.7818 18.9842 25.4876 18.3554C24.3288 17.7922 22.7089 17.9639 21.848 18.7408C20.8911 19.6046 20.7086 20.7912 20.7086 26.1492V30.8552H17.8615H15.0141L15.0737 22.2261L15.1331 13.5971H17.7502H20.3672L20.4371 14.5082C20.4758 15.0094 20.5732 15.4194 20.654 15.4194C20.7348 15.4194 21.1153 15.1321 21.4996 14.7811C22.7608 13.6297 23.7858 13.2933 26.0565 13.2862C27.7464 13.2808 28.3038 13.3683 29.2425 13.7864ZM11.2458 13.62C11.5657 13.7356 11.6058 14.7016 11.6058 22.3026V30.8552H8.64738H5.68897V22.2975C5.68897 15.6522 5.75246 13.7158 5.97343 13.6318C6.38419 13.4757 10.8191 13.4656 11.2458 13.62Z" fill="#5449CD"/>
</svg>
