<svg width="120" height="121" viewBox="0 0 120 121" fill="none" xmlns="http://www.w3.org/2000/svg">
<path fill-rule="evenodd" clip-rule="evenodd" d="M80.149 1.35998C78.7889 1.77928 77.283 3.06998 76.6715 4.34053C76.4079 4.88803 76.1229 6.02452 76.0378 6.86592L75.8834 8.39616L74.4804 8.80959C70.3636 10.023 66.173 13.0297 63.611 16.6087C62.4637 18.2115 61.1384 20.7782 60.6984 22.2494C60.4505 23.0788 60.2923 23.2466 59.6433 23.3683C57.1123 23.8431 54.2116 26.2928 52.8987 29.0643L52.1484 30.6484L52.0697 35.7674C52.0266 38.5827 52.0542 41.1374 52.1311 41.4444C52.2082 41.7515 52.5009 42.2165 52.7815 42.4778C53.2251 42.8912 53.6046 42.9531 55.6976 42.9531H58.1037L58.2251 43.7148C58.2919 44.1337 59.5669 60.5605 61.0584 80.2187C63.0787 106.847 63.8658 116.224 64.1449 116.993C64.6078 118.269 65.8706 119.697 67.1325 120.372L68.0859 120.883H86.0156C103.052 120.883 103.986 120.861 104.766 120.446C106.47 119.54 107.799 117.86 108.129 116.195C108.205 115.809 109.49 99.4082 110.983 79.75C112.477 60.0918 113.747 43.7706 113.807 43.4805C113.91 42.9756 114.016 42.9531 116.272 42.9531C118.565 42.9531 118.649 42.9344 119.315 42.268L120 41.583V36.8094C120 31.7596 119.796 30.3182 118.803 28.3733C117.671 26.1547 114.637 23.7901 112.377 23.3662C111.791 23.2562 111.564 23.0692 111.447 22.5988C111.197 21.5931 109.564 18.239 108.728 17.0141C106.204 13.3143 102.039 10.2487 97.6172 8.83584L95.9766 8.31178L95.8427 6.70655C95.6123 3.94397 94.1862 2.06452 91.7737 1.34475C90.1933 0.873187 81.6919 0.884437 80.149 1.35998ZM91.3228 5.53983C91.8148 5.96311 91.9687 6.30553 91.9687 6.97655C91.9687 7.64756 91.8148 7.98998 91.3228 8.41326C90.6891 8.95842 90.5876 8.96873 85.9062 8.96873H81.1355L80.5287 8.24756C79.7334 7.30256 79.7573 6.51905 80.6069 5.66944L81.292 4.98436H85.9844C90.5836 4.98436 90.6898 4.99537 91.3228 5.53983ZM75.9375 14.676C75.9375 17.298 76.2178 18.2343 77.1464 18.7145C77.932 19.1207 78.6176 18.9871 79.3945 18.276C79.8778 17.8337 79.9219 17.5858 79.9219 15.3147V12.8359H86.0156H92.1094L92.1169 15.2969C92.1248 17.9711 92.2765 18.3859 93.4019 18.8139C94.1904 19.1137 95.2753 18.763 95.6339 18.0927C95.7579 17.8609 95.8594 16.5044 95.8594 15.078C95.8594 13.1558 95.9353 12.486 96.1523 12.4907C96.818 12.5052 99.7012 13.915 101.086 14.9033C103.624 16.7139 106.6 20.4018 107.22 22.5039L107.375 23.0312H86.0313C71.4131 23.0312 64.6875 22.9544 64.6875 22.7875C64.6875 22.4073 65.6032 20.6994 66.5674 19.2812C67.5736 17.8009 69.6722 15.7469 71.3484 14.6012C72.3675 13.9049 75.289 12.5078 75.7617 12.4907C75.8585 12.4872 75.9375 13.4706 75.9375 14.676ZM112.098 27.3864C113.368 27.819 114.786 29.1086 115.439 30.4241C115.827 31.2067 115.91 31.9459 115.973 35.1601L116.047 38.9687H86.0116H55.976L56.0545 35.043C56.1302 31.2421 56.1534 31.082 56.7825 30.0119C57.5166 28.7633 58.6446 27.8127 59.9409 27.3501C60.6541 27.0955 65.5643 27.0341 85.9153 27.0259C108.2 27.0168 111.132 27.0571 112.098 27.3864ZM109.807 44.0664C109.734 44.6788 108.462 61.0326 106.98 80.4083C105.309 102.24 104.179 115.804 104.01 116.075C103.859 116.316 103.488 116.627 103.185 116.765C102.81 116.936 97.2574 117.016 85.7594 117.016H68.8849L68.3304 116.461C67.942 116.073 67.7332 115.529 67.6333 114.645C67.5551 113.951 66.3347 98.1426 64.9219 79.5156C63.5088 60.8887 62.2875 45.0419 62.208 44.3008L62.0634 42.9531H86.0006H109.938L109.807 44.0664ZM69.4922 47.1294C68.8683 47.253 68.4302 47.6291 68.1977 48.2406C68.0515 48.6255 71.4675 104.468 72.0225 110.766C72.1376 112.071 72.6527 112.714 73.7609 112.936C74.3976 113.063 74.6264 112.972 75.2592 112.339L76.0059 111.593L75.8533 109.265L75.7008 106.937H80.2514H84.802L85.4297 106.192C86.1513 105.334 86.103 104.343 85.3008 103.54C84.8684 103.107 84.4685 103.065 80.1689 102.998L75.5062 102.926L75.3726 101.24C75.2993 100.313 75.2116 98.9746 75.1781 98.2656L75.1172 96.9765L80.0623 96.8594C85.395 96.733 85.6298 96.6765 85.8982 95.454C86.0653 94.6928 85.5438 93.4827 84.9504 93.2549C84.7418 93.175 82.3805 93.1094 79.703 93.1094H74.835L74.6845 91.1758C74.6018 90.1122 74.5334 88.7413 74.5326 88.1289L74.5312 87.0156H78.4101C83.2919 87.0156 83.9062 86.7765 83.9062 84.8765C83.9062 84.4513 83.6829 83.9584 83.3309 83.6066C82.7616 83.0371 82.7114 83.0312 78.409 83.0312H74.0625L74.0611 81.918C74.0604 81.3055 73.9919 79.9347 73.9092 78.8711L73.7587 76.9375H78.2571C82.7208 76.9375 82.7601 76.933 83.3309 76.3621C84.1202 75.573 84.1076 74.3962 83.302 73.6384C82.7116 73.0834 82.593 73.0687 78.1537 72.9979L73.6097 72.9255L73.4911 72.1776C73.4259 71.7662 73.3432 70.4277 73.3073 69.2031L73.2422 66.9765L76.7578 66.9198C78.6914 66.8884 80.5087 66.8078 80.7965 66.7405C81.4626 66.5847 82.1151 65.3502 81.9272 64.6016C81.8489 64.2899 81.5768 63.8268 81.3223 63.5723C80.8978 63.1478 80.5298 63.1094 76.8949 63.1094H72.9307L72.7903 61.293C72.713 60.294 72.6068 58.9295 72.5543 58.2606L72.4587 57.0447L76.653 56.9715C80.628 56.9022 80.8748 56.871 81.3691 56.3762C82.1376 55.6068 82.0798 54.3051 81.2447 53.5867C80.6175 53.0472 80.4785 53.0312 76.4233 53.0312H72.248L72.0823 50.6959C71.8678 47.6699 71.2258 46.7861 69.4922 47.1294ZM16.0008 73.1884C13.4712 73.7176 11.4691 75.209 9.70968 77.875C8.8828 79.1277 8.25491 79.7108 6.17671 81.1562C4.26749 82.484 3.47507 83.196 2.93788 84.0662C2.26429 85.1575 2.22257 85.3694 2.14968 88.0647L2.07304 90.9109L1.41304 91.1601C1.04999 91.2972 0.564834 91.6963 0.334912 92.0472C-0.0780564 92.6774 -0.051572 92.8234 2.45366 103.737C3.8489 109.816 5.18952 115.332 5.4328 115.995C6.06374 117.716 7.46179 119.196 9.3239 120.112L10.8886 120.883H18.0419H25.1953L26.5191 120.262C28.0575 119.541 29.5352 118.152 30.2459 116.759C30.5208 116.22 31.3725 113.078 32.1389 109.776C32.9051 106.475 33.5883 103.589 33.6569 103.363C33.773 102.981 34.44 102.953 43.3165 102.952C49.1618 102.951 53.1893 102.857 53.7246 102.708C55.1034 102.325 56.5277 101.103 57.2461 99.6869C58.9624 96.3027 57.1612 92.2647 53.479 91.2421C52.9594 91.0977 48.9185 91.0021 43.3008 91.0014L33.9844 91V88.4514C33.9844 84.7483 33.3115 83.1494 31.2429 81.9372C30.6544 81.5922 29.5851 81.2179 28.867 81.1051C28.1489 80.9926 27.4221 80.785 27.2517 80.6437C27.0816 80.5023 26.5116 79.559 25.9851 78.5469C24.8051 76.2787 22.8654 74.383 21.0166 73.6914C19.4908 73.1205 17.351 72.906 16.0008 73.1884ZM20.359 77.8108C21.2053 78.3351 21.6293 78.8683 22.5497 80.5654C23.1773 81.7227 23.9238 82.9194 24.2088 83.2248C24.9633 84.0339 26.3416 84.6735 27.8536 84.9168C29.7982 85.2292 30 85.5723 30 88.5651V91H17.9297H5.85937L5.86991 89.0664C5.87577 88.0028 6.01054 86.8283 6.16944 86.4562C6.35976 86.0104 7.29515 85.2109 8.9114 84.1124C10.9575 82.7221 11.5509 82.173 12.4868 80.8047C13.9474 78.6693 14.9386 77.6929 16.072 77.2724C17.3578 76.7957 19.0669 77.0101 20.359 77.8108ZM31.4062 95.2368C31.4062 96.1656 27.0422 114.26 26.6339 115.023C26.2948 115.658 25.7918 116.134 25.0781 116.496C24.0462 117.019 23.8868 117.029 17.6766 116.965L11.3297 116.898L10.4693 116.242C9.99608 115.881 9.45679 115.291 9.27069 114.931C9.08483 114.572 7.97483 110.121 6.8039 105.041C5.63319 99.9611 4.61812 95.62 4.54851 95.3945C4.42851 95.0071 5.17194 94.9844 17.914 94.9844C27.3975 94.9844 31.4062 95.0594 31.4062 95.2368ZM53.3309 95.5597C54.2016 96.4302 54.1861 97.6391 53.2943 98.4414L52.7081 98.9687H43.6978C38.7422 98.9687 34.6875 98.9226 34.6875 98.8661C34.6875 98.7016 35.3976 95.5994 35.509 95.2773C35.5875 95.0502 37.5351 94.9844 44.183 94.9844H52.7557L53.3309 95.5597Z" fill="currentColor"/>
</svg>
